solid mlplayer-case
facet normal 0.0 1.0 0.0
  outer loop
    vertex 747.0387088617558 227.37117148530228 -43.500000000000036
    vertex 756.3387088617558 227.37117148530228 -44.20000000000004
    vertex 747.0387088617558 227.37117148530228 -44.20000000000004
  endloop
endfacet
facet normal 0.0 1.0 0.0
  outer loop
    vertex 756.3387088617558 227.37117148530228 -44.20000000000004
    vertex 747.0387088617558 227.37117148530228 -43.500000000000036
    vertex 756.3387088617558 227.37117148530228 -43.500000000000036
  endloop
endfacet
facet normal 0.0 0.7071067811864677 0.7071067811866273
  outer loop
    vertex 792.5170415846086 226.1711714853023 -40.30000000000004
    vertex 786.6170415846087 226.37117148530234 -40.500000000000036
    vertex 786.6170415846087 226.1711714853023 -40.30000000000004
  endloop
endfacet
facet normal 0.0 0.7071067811864677 0.7071067811866273
  outer loop
    vertex 786.6170415846087 226.37117148530234 -40.500000000000036
    vertex 792.5170415846086 226.1711714853023 -40.30000000000004
    vertex 792.5170415846086 226.37117148530234 -40.500000000000036
  endloop
endfacet
facet normal 0.0 -0.7071067811864677 0.7071067811866273
  outer loop
    vertex 792.5170415846086 223.37117148530228 -40.500000000000036
    vertex 786.6170415846087 223.57117148530233 -40.30000000000004
    vertex 786.6170415846087 223.37117148530228 -40.500000000000036
  endloop
endfacet
facet normal 0.0 -0.7071067811864677 0.7071067811866273
  outer loop
    vertex 786.6170415846087 223.57117148530233 -40.30000000000004
    vertex 792.5170415846086 223.37117148530228 -40.500000000000036
    vertex 792.5170415846086 223.57117148530233 -40.30000000000004
  endloop
endfacet
facet normal -1.0 1.5154594871057085e-30 2.9018742227048915e-14
  outer loop
    vertex 786.6170415846087 223.57117148530233 -40.30000000000004
    vertex 786.6170415846086 223.37117148530228 -43.500000000000036
    vertex 786.6170415846087 223.37117148530228 -40.500000000000036
  endloop
endfacet
facet normal -1.0 1.5154594871057085e-30 2.9018742227048915e-14
  outer loop
    vertex 786.6170415846086 223.37117148530228 -43.500000000000036
    vertex 786.6170415846087 223.57117148530233 -40.30000000000004
    vertex 786.6170415846086 226.37117148530228 -43.500000000000036
  endloop
endfacet
facet normal -1.0 1.5154594871057085e-30 2.9018742227048915e-14
  outer loop
    vertex 786.6170415846086 226.37117148530228 -43.500000000000036
    vertex 786.6170415846087 223.57117148530233 -40.30000000000004
    vertex 786.6170415846087 226.1711714853023 -40.30000000000004
  endloop
endfacet
facet normal -1.0 1.5154594871057085e-30 2.9018742227048915e-14
  outer loop
    vertex 786.6170415846086 226.37117148530228 -43.500000000000036
    vertex 786.6170415846087 226.1711714853023 -40.30000000000004
    vertex 786.6170415846087 226.37117148530234 -40.500000000000036
  endloop
endfacet
facet normal 0.0 0.0 1.0
  outer loop
    vertex 779.8387088617558 223.5711714853023 -40.30000000000004
    vertex 773.9387088617557 226.1711714853023 -40.30000000000004
    vertex 773.9387088617557 223.5711714853023 -40.30000000000004
  endloop
endfacet
facet normal 0.0 0.0 1.0
  outer loop
    vertex 773.9387088617557 226.1711714853023 -40.30000000000004
    vertex 779.8387088617558 223.5711714853023 -40.30000000000004
    vertex 779.8387088617558 226.1711714853023 -40.30000000000004
  endloop
endfacet
facet normal -8.270634576670666e-29 -0.7071067811865476 0.7071067811865476
  outer loop
    vertex 779.8387088617558 223.5711714853023 -40.30000000000004
    vertex 773.9387088617557 223.37117148530228 -40.500000000000036
    vertex 779.8387088617558 223.37117148530228 -40.500000000000036
  endloop
endfacet
facet normal -8.270634576670666e-29 -0.7071067811865476 0.7071067811865476
  outer loop
    vertex 773.9387088617557 223.37117148530228 -40.500000000000036
    vertex 779.8387088617558 223.5711714853023 -40.30000000000004
    vertex 773.9387088617557 223.5711714853023 -40.30000000000004
  endloop
endfacet
facet normal 1.0 0.0 0.0
  outer loop
    vertex 794.0170415846086 227.37117148530228 -44.20000000000004
    vertex 794.0170415846086 222.37117148530228 -43.500000000000036
    vertex 794.0170415846086 222.37117148530228 -44.20000000000004
  endloop
endfacet
facet normal 1.0 0.0 0.0
  outer loop
    vertex 794.0170415846086 222.37117148530228 -43.500000000000036
    vertex 794.0170415846086 227.37117148530228 -44.20000000000004
    vertex 794.0170415846086 227.37117148530228 -43.500000000000036
  endloop
endfacet
facet normal 0.0 0.0 -1.0
  outer loop
    vertex 794.0170415846086 227.37117148530228 -44.20000000000004
    vertex 784.7387088617559 226.37117148530228 -44.20000000000004
    vertex 784.7387088617559 227.37117148530228 -44.20000000000004
  endloop
endfacet
facet normal 0.0 0.0 -1.0
  outer loop
    vertex 784.7387088617559 226.37117148530228 -44.20000000000004
    vertex 794.0170415846086 227.37117148530228 -44.20000000000004
    vertex 784.7387088617559 223.37117148530228 -44.20000000000004
  endloop
endfacet
facet normal 0.0 0.0 -1.0
  outer loop
    vertex 784.7387088617559 223.37117148530228 -44.20000000000004
    vertex 794.0170415846086 227.37117148530228 -44.20000000000004
    vertex 784.7387088617559 222.37117148530228 -44.20000000000004
  endloop
endfacet
facet normal 0.0 0.0 -1.0
  outer loop
    vertex 784.7387088617559 222.37117148530228 -44.20000000000004
    vertex 794.0170415846086 227.37117148530228 -44.20000000000004
    vertex 794.0170415846086 222.37117148530228 -44.20000000000004
  endloop
endfacet
facet normal 0.0 0.0 -1.0
  outer loop
    vertex 784.7387088617559 226.37117148530228 -44.20000000000004
    vertex 781.7387088617556 223.37117148530228 -44.20000000000004
    vertex 781.7387088617556 226.37117148530228 -44.20000000000004
  endloop
endfacet
facet normal 0.0 0.0 -1.0
  outer loop
    vertex 781.7387088617556 223.37117148530228 -44.20000000000004
    vertex 784.7387088617559 226.37117148530228 -44.20000000000004
    vertex 784.7387088617559 223.37117148530228 -44.20000000000004
  endloop
endfacet
facet normal 0.0 0.0 -1.0
  outer loop
    vertex 781.7387088617556 227.37117148530228 -44.20000000000004
    vertex 772.0170415846087 226.37117148530228 -44.20000000000004
    vertex 772.0170415846087 227.37117148530228 -44.20000000000004
  endloop
endfacet
facet normal 0.0 0.0 -1.0
  outer loop
    vertex 772.0170415846087 226.37117148530228 -44.20000000000004
    vertex 781.7387088617556 227.37117148530228 -44.20000000000004
    vertex 772.0170415846087 223.37117148530228 -44.20000000000004
  endloop
endfacet
facet normal 0.0 0.0 -1.0
  outer loop
    vertex 772.0170415846087 223.37117148530228 -44.20000000000004
    vertex 781.7387088617556 227.37117148530228 -44.20000000000004
    vertex 772.0170415846087 222.37117148530228 -44.20000000000004
  endloop
endfacet
facet normal 0.0 0.0 -1.0
  outer loop
    vertex 772.0170415846087 222.37117148530228 -44.20000000000004
    vertex 781.7387088617556 227.37117148530228 -44.20000000000004
    vertex 781.7387088617556 222.37117148530228 -44.20000000000004
  endloop
endfacet
facet normal 0.0 0.0 -1.0
  outer loop
    vertex 781.7387088617556 222.37117148530228 -44.20000000000004
    vertex 781.7387088617556 227.37117148530228 -44.20000000000004
    vertex 781.7387088617556 226.37117148530228 -44.20000000000004
  endloop
endfacet
facet normal 0.0 0.0 -1.0
  outer loop
    vertex 781.7387088617556 222.37117148530228 -44.20000000000004
    vertex 781.7387088617556 226.37117148530228 -44.20000000000004
    vertex 781.7387088617556 223.37117148530228 -44.20000000000004
  endloop
endfacet
facet normal 0.0 0.0 -1.0
  outer loop
    vertex 772.0170415846087 226.37117148530228 -44.20000000000004
    vertex 769.0170415846086 223.37117148530228 -44.20000000000004
    vertex 769.0170415846086 226.37117148530228 -44.20000000000004
  endloop
endfacet
facet normal 0.0 0.0 -1.0
  outer loop
    vertex 769.0170415846086 223.37117148530228 -44.20000000000004
    vertex 772.0170415846087 226.37117148530228 -44.20000000000004
    vertex 772.0170415846087 223.37117148530228 -44.20000000000004
  endloop
endfacet
facet normal 0.0 0.0 -1.0
  outer loop
    vertex 769.0170415846086 227.37117148530228 -44.20000000000004
    vertex 759.3387088617558 226.37117148530228 -44.20000000000004
    vertex 759.3387088617558 227.37117148530228 -44.20000000000004
  endloop
endfacet
facet normal 0.0 0.0 -1.0
  outer loop
    vertex 759.3387088617558 226.37117148530228 -44.20000000000004
    vertex 769.0170415846086 227.37117148530228 -44.20000000000004
    vertex 759.3387088617558 223.37117148530228 -44.20000000000004
  endloop
endfacet
facet normal 0.0 0.0 -1.0
  outer loop
    vertex 759.3387088617558 223.37117148530228 -44.20000000000004
    vertex 769.0170415846086 227.37117148530228 -44.20000000000004
    vertex 759.3387088617558 222.37117148530228 -44.20000000000004
  endloop
endfacet
facet normal 0.0 0.0 -1.0
  outer loop
    vertex 759.3387088617558 222.37117148530228 -44.20000000000004
    vertex 769.0170415846086 227.37117148530228 -44.20000000000004
    vertex 769.0170415846086 222.37117148530228 -44.20000000000004
  endloop
endfacet
facet normal 0.0 0.0 -1.0
  outer loop
    vertex 769.0170415846086 222.37117148530228 -44.20000000000004
    vertex 769.0170415846086 227.37117148530228 -44.20000000000004
    vertex 769.0170415846086 226.37117148530228 -44.20000000000004
  endloop
endfacet
facet normal 0.0 0.0 -1.0
  outer loop
    vertex 769.0170415846086 222.37117148530228 -44.20000000000004
    vertex 769.0170415846086 226.37117148530228 -44.20000000000004
    vertex 769.0170415846086 223.37117148530228 -44.20000000000004
  endloop
endfacet
facet normal 0.0 0.0 -1.0
  outer loop
    vertex 759.3387088617558 226.37117148530228 -44.20000000000004
    vertex 756.3387088617558 223.37117148530228 -44.20000000000004
    vertex 756.3387088617558 226.37117148530228 -44.20000000000004
  endloop
endfacet
facet normal 0.0 0.0 -1.0
  outer loop
    vertex 756.3387088617558 223.37117148530228 -44.20000000000004
    vertex 759.3387088617558 226.37117148530228 -44.20000000000004
    vertex 759.3387088617558 223.37117148530228 -44.20000000000004
  endloop
endfacet
facet normal 0.0 0.0 -1.0
  outer loop
    vertex 756.3387088617558 227.37117148530228 -44.20000000000004
    vertex 747.0387088617558 222.37117148530228 -44.20000000000004
    vertex 747.0387088617558 227.37117148530228 -44.20000000000004
  endloop
endfacet
facet normal 0.0 0.0 -1.0
  outer loop
    vertex 747.0387088617558 222.37117148530228 -44.20000000000004
    vertex 756.3387088617558 227.37117148530228 -44.20000000000004
    vertex 756.3387088617558 222.37117148530228 -44.20000000000004
  endloop
endfacet
facet normal 0.0 0.0 -1.0
  outer loop
    vertex 756.3387088617558 222.37117148530228 -44.20000000000004
    vertex 756.3387088617558 227.37117148530228 -44.20000000000004
    vertex 756.3387088617558 226.37117148530228 -44.20000000000004
  endloop
endfacet
facet normal 0.0 0.0 -1.0
  outer loop
    vertex 756.3387088617558 222.37117148530228 -44.20000000000004
    vertex 756.3387088617558 226.37117148530228 -44.20000000000004
    vertex 756.3387088617558 223.37117148530228 -44.20000000000004
  endloop
endfacet
facet normal 2.665205244600307e-32 1.0 -1.5039821240255457e-14
  outer loop
    vertex 786.6170415846087 226.37117148530234 -40.500000000000036
    vertex 792.5170415846086 226.37117148530228 -43.500000000000036
    vertex 786.6170415846086 226.37117148530228 -43.500000000000036
  endloop
endfacet
facet normal 2.665205244600307e-32 1.0 -1.5039821240255457e-14
  outer loop
    vertex 792.5170415846086 226.37117148530228 -43.500000000000036
    vertex 786.6170415846087 226.37117148530234 -40.500000000000036
    vertex 792.5170415846086 226.37117148530234 -40.500000000000036
  endloop
endfacet
facet normal 0.0 -1.0 0.0
  outer loop
    vertex 792.5170415846086 223.37117148530228 -40.500000000000036
    vertex 786.6170415846086 223.37117148530228 -43.500000000000036
    vertex 792.5170415846086 223.37117148530228 -43.500000000000036
  endloop
endfacet
facet normal 0.0 -1.0 0.0
  outer loop
    vertex 786.6170415846086 223.37117148530228 -43.500000000000036
    vertex 792.5170415846086 223.37117148530228 -40.500000000000036
    vertex 786.6170415846087 223.37117148530228 -40.500000000000036
  endloop
endfacet
facet normal -1.0 0.0 0.0
  outer loop
    vertex 773.9387088617557 223.5711714853023 -40.30000000000004
    vertex 773.9387088617557 223.37117148530228 -43.500000000000036
    vertex 773.9387088617557 223.37117148530228 -40.500000000000036
  endloop
endfacet
facet normal -1.0 0.0 0.0
  outer loop
    vertex 773.9387088617557 223.37117148530228 -43.500000000000036
    vertex 773.9387088617557 223.5711714853023 -40.30000000000004
    vertex 773.9387088617557 226.37117148530228 -43.500000000000036
  endloop
endfacet
facet normal -1.0 0.0 0.0
  outer loop
    vertex 773.9387088617557 226.37117148530228 -43.500000000000036
    vertex 773.9387088617557 223.5711714853023 -40.30000000000004
    vertex 773.9387088617557 226.1711714853023 -40.30000000000004
  endloop
endfacet
facet normal -1.0 0.0 0.0
  outer loop
    vertex 773.9387088617557 226.37117148530228 -43.500000000000036
    vertex 773.9387088617557 226.1711714853023 -40.30000000000004
    vertex 773.9387088617557 226.37117148530228 -40.500000000000036
  endloop
endfacet
facet normal 1.0 0.0 0.0
  outer loop
    vertex 792.5170415846086 226.37117148530228 -43.500000000000036
    vertex 792.5170415846086 223.37117148530228 -40.500000000000036
    vertex 792.5170415846086 223.37117148530228 -43.500000000000036
  endloop
endfacet
facet normal 1.0 0.0 0.0
  outer loop
    vertex 792.5170415846086 223.37117148530228 -40.500000000000036
    vertex 792.5170415846086 226.37117148530228 -43.500000000000036
    vertex 792.5170415846086 223.57117148530233 -40.30000000000004
  endloop
endfacet
facet normal 1.0 0.0 0.0
  outer loop
    vertex 792.5170415846086 223.57117148530233 -40.30000000000004
    vertex 792.5170415846086 226.37117148530228 -43.500000000000036
    vertex 792.5170415846086 226.1711714853023 -40.30000000000004
  endloop
endfacet
facet normal 1.0 0.0 0.0
  outer loop
    vertex 792.5170415846086 226.1711714853023 -40.30000000000004
    vertex 792.5170415846086 226.37117148530228 -43.500000000000036
    vertex 792.5170415846086 226.37117148530234 -40.500000000000036
  endloop
endfacet
facet normal 0.0 -1.0 0.0
  outer loop
    vertex 794.0170415846086 222.37117148530228 -43.500000000000036
    vertex 784.7387088617559 222.37117148530228 -44.20000000000004
    vertex 794.0170415846086 222.37117148530228 -44.20000000000004
  endloop
endfacet
facet normal 0.0 -1.0 0.0
  outer loop
    vertex 784.7387088617559 222.37117148530228 -44.20000000000004
    vertex 794.0170415846086 222.37117148530228 -43.500000000000036
    vertex 784.7387088617559 222.37117148530228 -43.500000000000036
  endloop
endfacet
facet normal 1.0 0.0 0.0
  outer loop
    vertex 779.8387088617558 226.37117148530228 -43.500000000000036
    vertex 779.8387088617558 223.37117148530228 -40.500000000000036
    vertex 779.8387088617558 223.37117148530228 -43.500000000000036
  endloop
endfacet
facet normal 1.0 0.0 0.0
  outer loop
    vertex 779.8387088617558 223.37117148530228 -40.500000000000036
    vertex 779.8387088617558 226.37117148530228 -43.500000000000036
    vertex 779.8387088617558 223.5711714853023 -40.30000000000004
  endloop
endfacet
facet normal 1.0 0.0 0.0
  outer loop
    vertex 779.8387088617558 223.5711714853023 -40.30000000000004
    vertex 779.8387088617558 226.37117148530228 -43.500000000000036
    vertex 779.8387088617558 226.1711714853023 -40.30000000000004
  endloop
endfacet
facet normal 1.0 0.0 0.0
  outer loop
    vertex 779.8387088617558 226.1711714853023 -40.30000000000004
    vertex 779.8387088617558 226.37117148530228 -43.500000000000036
    vertex 779.8387088617558 226.37117148530228 -40.500000000000036
  endloop
endfacet
facet normal 0.0 -1.0 0.0
  outer loop
    vertex 779.8387088617558 223.37117148530228 -40.500000000000036
    vertex 773.9387088617557 223.37117148530228 -43.500000000000036
    vertex 779.8387088617558 223.37117148530228 -43.500000000000036
  endloop
endfacet
facet normal 0.0 -1.0 0.0
  outer loop
    vertex 773.9387088617557 223.37117148530228 -43.500000000000036
    vertex 779.8387088617558 223.37117148530228 -40.500000000000036
    vertex 773.9387088617557 223.37117148530228 -40.500000000000036
  endloop
endfacet
facet normal 0.0 1.0 0.0
  outer loop
    vertex 773.9387088617557 226.37117148530228 -40.500000000000036
    vertex 779.8387088617558 226.37117148530228 -43.500000000000036
    vertex 773.9387088617557 226.37117148530228 -43.500000000000036
  endloop
endfacet
facet normal 0.0 1.0 0.0
  outer loop
    vertex 779.8387088617558 226.37117148530228 -43.500000000000036
    vertex 773.9387088617557 226.37117148530228 -40.500000000000036
    vertex 779.8387088617558 226.37117148530228 -40.500000000000036
  endloop
endfacet
facet normal 8.270634576670666e-29 0.7071067811865476 0.7071067811865476
  outer loop
    vertex 773.9387088617557 226.1711714853023 -40.30000000000004
    vertex 779.8387088617558 226.37117148530228 -40.500000000000036
    vertex 773.9387088617557 226.37117148530228 -40.500000000000036
  endloop
endfacet
facet normal 8.270634576670666e-29 0.7071067811865476 0.7071067811865476
  outer loop
    vertex 779.8387088617558 226.37117148530228 -40.500000000000036
    vertex 773.9387088617557 226.1711714853023 -40.30000000000004
    vertex 779.8387088617558 226.1711714853023 -40.30000000000004
  endloop
endfacet
facet normal 0.0 0.0 1.0
  outer loop
    vertex 792.5170415846086 223.57117148530233 -40.30000000000004
    vertex 786.6170415846087 226.1711714853023 -40.30000000000004
    vertex 786.6170415846087 223.57117148530233 -40.30000000000004
  endloop
endfacet
facet normal 0.0 0.0 1.0
  outer loop
    vertex 786.6170415846087 226.1711714853023 -40.30000000000004
    vertex 792.5170415846086 223.57117148530233 -40.30000000000004
    vertex 792.5170415846086 226.1711714853023 -40.30000000000004
  endloop
endfacet
facet normal 1.0 0.0 0.0
  outer loop
    vertex 754.4387088617558 226.37117148530228 -43.500000000000036
    vertex 754.4387088617558 223.37117148530228 -40.500000000000036
    vertex 754.4387088617558 223.37117148530228 -43.500000000000036
  endloop
endfacet
facet normal 1.0 0.0 0.0
  outer loop
    vertex 754.4387088617558 223.37117148530228 -40.500000000000036
    vertex 754.4387088617558 226.37117148530228 -43.500000000000036
    vertex 754.4387088617558 223.5711714853023 -40.30000000000004
  endloop
endfacet
facet normal 1.0 0.0 0.0
  outer loop
    vertex 754.4387088617558 223.5711714853023 -40.30000000000004
    vertex 754.4387088617558 226.37117148530228 -43.500000000000036
    vertex 754.4387088617558 226.1711714853023 -40.30000000000004
  endloop
endfacet
facet normal 1.0 0.0 0.0
  outer loop
    vertex 754.4387088617558 226.1711714853023 -40.30000000000004
    vertex 754.4387088617558 226.37117148530228 -43.500000000000036
    vertex 754.4387088617558 226.37117148530228 -40.500000000000036
  endloop
endfacet
facet normal 0.0 0.0 1.0
  outer loop
    vertex 754.4387088617558 223.5711714853023 -40.30000000000004
    vertex 748.5387088617558 226.1711714853023 -40.30000000000004
    vertex 748.5387088617558 223.5711714853023 -40.30000000000004
  endloop
endfacet
facet normal 0.0 0.0 1.0
  outer loop
    vertex 748.5387088617558 226.1711714853023 -40.30000000000004
    vertex 754.4387088617558 223.5711714853023 -40.30000000000004
    vertex 754.4387088617558 226.1711714853023 -40.30000000000004
  endloop
endfacet
facet normal 0.0 -1.0 0.0
  outer loop
    vertex 754.4387088617558 223.37117148530228 -40.500000000000036
    vertex 748.5387088617557 223.37117148530228 -43.500000000000036
    vertex 754.4387088617558 223.37117148530228 -43.500000000000036
  endloop
endfacet
facet normal 0.0 -1.0 0.0
  outer loop
    vertex 748.5387088617557 223.37117148530228 -43.500000000000036
    vertex 754.4387088617558 223.37117148530228 -40.500000000000036
    vertex 748.5387088617558 223.37117148530228 -40.500000000000036
  endloop
endfacet
facet normal -1.0 2.9823994838322174e-43 2.9018742227048915e-14
  outer loop
    vertex 748.5387088617558 223.5711714853023 -40.30000000000004
    vertex 748.5387088617557 223.37117148530228 -43.500000000000036
    vertex 748.5387088617558 223.37117148530228 -40.500000000000036
  endloop
endfacet
facet normal -1.0 2.9823994838322174e-43 2.9018742227048915e-14
  outer loop
    vertex 748.5387088617557 223.37117148530228 -43.500000000000036
    vertex 748.5387088617558 223.5711714853023 -40.30000000000004
    vertex 748.5387088617557 226.37117148530228 -43.500000000000036
  endloop
endfacet
facet normal -1.0 2.9823994838322174e-43 2.9018742227048915e-14
  outer loop
    vertex 748.5387088617557 226.37117148530228 -43.500000000000036
    vertex 748.5387088617558 223.5711714853023 -40.30000000000004
    vertex 748.5387088617558 226.1711714853023 -40.30000000000004
  endloop
endfacet
facet normal -1.0 2.9823994838322174e-43 2.9018742227048915e-14
  outer loop
    vertex 748.5387088617557 226.37117148530228 -43.500000000000036
    vertex 748.5387088617558 226.1711714853023 -40.30000000000004
    vertex 748.5387088617558 226.37117148530228 -40.500000000000036
  endloop
endfacet
facet normal 0.0 1.0 0.0
  outer loop
    vertex 748.5387088617558 226.37117148530228 -40.500000000000036
    vertex 754.4387088617558 226.37117148530228 -43.500000000000036
    vertex 748.5387088617557 226.37117148530228 -43.500000000000036
  endloop
endfacet
facet normal 0.0 1.0 0.0
  outer loop
    vertex 754.4387088617558 226.37117148530228 -43.500000000000036
    vertex 748.5387088617558 226.37117148530228 -40.500000000000036
    vertex 754.4387088617558 226.37117148530228 -40.500000000000036
  endloop
endfacet
facet normal 8.270634576670666e-29 0.7071067811865476 0.7071067811865476
  outer loop
    vertex 748.5387088617558 226.1711714853023 -40.30000000000004
    vertex 754.4387088617558 226.37117148530228 -40.500000000000036
    vertex 748.5387088617558 226.37117148530228 -40.500000000000036
  endloop
endfacet
facet normal 8.270634576670666e-29 0.7071067811865476 0.7071067811865476
  outer loop
    vertex 754.4387088617558 226.37117148530228 -40.500000000000036
    vertex 748.5387088617558 226.1711714853023 -40.30000000000004
    vertex 754.4387088617558 226.1711714853023 -40.30000000000004
  endloop
endfacet
facet normal 0.0 0.0 1.0
  outer loop
    vertex 767.1170415846086 223.5711714853023 -40.30000000000004
    vertex 761.2170415846088 226.1711714853023 -40.30000000000004
    vertex 761.2170415846088 223.5711714853023 -40.30000000000004
  endloop
endfacet
facet normal 0.0 0.0 1.0
  outer loop
    vertex 761.2170415846088 226.1711714853023 -40.30000000000004
    vertex 767.1170415846086 223.5711714853023 -40.30000000000004
    vertex 767.1170415846086 226.1711714853023 -40.30000000000004
  endloop
endfacet
facet normal -8.270634576670666e-29 -0.7071067811865476 0.7071067811865476
  outer loop
    vertex 754.4387088617558 223.5711714853023 -40.30000000000004
    vertex 748.5387088617558 223.37117148530228 -40.500000000000036
    vertex 754.4387088617558 223.37117148530228 -40.500000000000036
  endloop
endfacet
facet normal -8.270634576670666e-29 -0.7071067811865476 0.7071067811865476
  outer loop
    vertex 748.5387088617558 223.37117148530228 -40.500000000000036
    vertex 754.4387088617558 223.5711714853023 -40.30000000000004
    vertex 748.5387088617558 223.5711714853023 -40.30000000000004
  endloop
endfacet
facet normal 0.0 -0.7071067811865476 0.7071067811865476
  outer loop
    vertex 767.1170415846086 223.5711714853023 -40.30000000000004
    vertex 761.2170415846088 223.37117148530228 -40.500000000000036
    vertex 767.1170415846086 223.37117148530228 -40.500000000000036
  endloop
endfacet
facet normal 0.0 -0.7071067811865476 0.7071067811865476
  outer loop
    vertex 761.2170415846088 223.37117148530228 -40.500000000000036
    vertex 767.1170415846086 223.5711714853023 -40.30000000000004
    vertex 761.2170415846088 223.5711714853023 -40.30000000000004
  endloop
endfacet
facet normal 0.0 0.7071067811865476 0.7071067811865476
  outer loop
    vertex 761.2170415846088 226.1711714853023 -40.30000000000004
    vertex 767.1170415846086 226.37117148530228 -40.500000000000036
    vertex 761.2170415846088 226.37117148530228 -40.500000000000036
  endloop
endfacet
facet normal 0.0 0.7071067811865476 0.7071067811865476
  outer loop
    vertex 767.1170415846086 226.37117148530228 -40.500000000000036
    vertex 761.2170415846088 226.1711714853023 -40.30000000000004
    vertex 767.1170415846086 226.1711714853023 -40.30000000000004
  endloop
endfacet
facet normal 0.0 1.0 0.0
  outer loop
    vertex 761.2170415846088 226.37117148530228 -40.500000000000036
    vertex 767.1170415846086 226.37117148530228 -43.500000000000036
    vertex 761.2170415846088 226.37117148530228 -43.500000000000036
  endloop
endfacet
facet normal 0.0 1.0 0.0
  outer loop
    vertex 767.1170415846086 226.37117148530228 -43.500000000000036
    vertex 761.2170415846088 226.37117148530228 -40.500000000000036
    vertex 767.1170415846086 226.37117148530228 -40.500000000000036
  endloop
endfacet
facet normal 0.0 -1.0 0.0
  outer loop
    vertex 767.1170415846086 223.37117148530228 -40.500000000000036
    vertex 761.2170415846088 223.37117148530228 -43.500000000000036
    vertex 767.1170415846086 223.37117148530228 -43.500000000000036
  endloop
endfacet
facet normal 0.0 -1.0 0.0
  outer loop
    vertex 761.2170415846088 223.37117148530228 -43.500000000000036
    vertex 767.1170415846086 223.37117148530228 -40.500000000000036
    vertex 761.2170415846088 223.37117148530228 -40.500000000000036
  endloop
endfacet
facet normal -1.0 0.0 0.0
  outer loop
    vertex 761.2170415846088 223.5711714853023 -40.30000000000004
    vertex 761.2170415846088 223.37117148530228 -43.500000000000036
    vertex 761.2170415846088 223.37117148530228 -40.500000000000036
  endloop
endfacet
facet normal -1.0 0.0 0.0
  outer loop
    vertex 761.2170415846088 223.37117148530228 -43.500000000000036
    vertex 761.2170415846088 223.5711714853023 -40.30000000000004
    vertex 761.2170415846088 226.37117148530228 -43.500000000000036
  endloop
endfacet
facet normal -1.0 0.0 0.0
  outer loop
    vertex 761.2170415846088 226.37117148530228 -43.500000000000036
    vertex 761.2170415846088 223.5711714853023 -40.30000000000004
    vertex 761.2170415846088 226.1711714853023 -40.30000000000004
  endloop
endfacet
facet normal -1.0 0.0 0.0
  outer loop
    vertex 761.2170415846088 226.37117148530228 -43.500000000000036
    vertex 761.2170415846088 226.1711714853023 -40.30000000000004
    vertex 761.2170415846088 226.37117148530228 -40.500000000000036
  endloop
endfacet
facet normal 1.0 0.0 0.0
  outer loop
    vertex 767.1170415846086 226.37117148530228 -43.500000000000036
    vertex 767.1170415846086 223.37117148530228 -40.500000000000036
    vertex 767.1170415846086 223.37117148530228 -43.500000000000036
  endloop
endfacet
facet normal 1.0 0.0 0.0
  outer loop
    vertex 767.1170415846086 223.37117148530228 -40.500000000000036
    vertex 767.1170415846086 226.37117148530228 -43.500000000000036
    vertex 767.1170415846086 223.5711714853023 -40.30000000000004
  endloop
endfacet
facet normal 1.0 0.0 0.0
  outer loop
    vertex 767.1170415846086 223.5711714853023 -40.30000000000004
    vertex 767.1170415846086 226.37117148530228 -43.500000000000036
    vertex 767.1170415846086 226.1711714853023 -40.30000000000004
  endloop
endfacet
facet normal 1.0 0.0 0.0
  outer loop
    vertex 767.1170415846086 226.1711714853023 -40.30000000000004
    vertex 767.1170415846086 226.37117148530228 -43.500000000000036
    vertex 767.1170415846086 226.37117148530228 -40.500000000000036
  endloop
endfacet
facet normal 0.0 0.0 1.0
  outer loop
    vertex 784.7387088617559 222.37117148530228 -43.500000000000036
    vertex 786.6170415846086 223.37117148530228 -43.500000000000036
    vertex 784.7387088617559 227.37117148530228 -43.500000000000036
  endloop
endfacet
facet normal 0.0 0.0 1.0
  outer loop
    vertex 786.6170415846086 223.37117148530228 -43.500000000000036
    vertex 784.7387088617559 222.37117148530228 -43.500000000000036
    vertex 794.0170415846086 222.37117148530228 -43.500000000000036
  endloop
endfacet
facet normal 0.0 0.0 1.0
  outer loop
    vertex 786.6170415846086 223.37117148530228 -43.500000000000036
    vertex 794.0170415846086 222.37117148530228 -43.500000000000036
    vertex 792.5170415846086 223.37117148530228 -43.500000000000036
  endloop
endfacet
facet normal 0.0 0.0 1.0
  outer loop
    vertex 792.5170415846086 223.37117148530228 -43.500000000000036
    vertex 794.0170415846086 222.37117148530228 -43.500000000000036
    vertex 792.5170415846086 226.37117148530228 -43.500000000000036
  endloop
endfacet
facet normal 0.0 0.0 1.0
  outer loop
    vertex 784.7387088617559 227.37117148530228 -43.500000000000036
    vertex 786.6170415846086 226.37117148530228 -43.500000000000036
    vertex 794.0170415846086 227.37117148530228 -43.500000000000036
  endloop
endfacet
facet normal 0.0 0.0 1.0
  outer loop
    vertex 786.6170415846086 226.37117148530228 -43.500000000000036
    vertex 784.7387088617559 227.37117148530228 -43.500000000000036
    vertex 786.6170415846086 223.37117148530228 -43.500000000000036
  endloop
endfacet
facet normal 0.0 0.0 1.0
  outer loop
    vertex 794.0170415846086 227.37117148530228 -43.500000000000036
    vertex 786.6170415846086 226.37117148530228 -43.500000000000036
    vertex 792.5170415846086 226.37117148530228 -43.500000000000036
  endloop
endfacet
facet normal 0.0 0.0 1.0
  outer loop
    vertex 794.0170415846086 227.37117148530228 -43.500000000000036
    vertex 792.5170415846086 226.37117148530228 -43.500000000000036
    vertex 794.0170415846086 222.37117148530228 -43.500000000000036
  endloop
endfacet
facet normal -1.0 0.0 0.0
  outer loop
    vertex 747.0387088617558 227.37117148530228 -43.500000000000036
    vertex 747.0387088617558 222.37117148530228 -44.20000000000004
    vertex 747.0387088617558 222.37117148530228 -43.500000000000036
  endloop
endfacet
facet normal -1.0 0.0 0.0
  outer loop
    vertex 747.0387088617558 222.37117148530228 -44.20000000000004
    vertex 747.0387088617558 227.37117148530228 -43.500000000000036
    vertex 747.0387088617558 227.37117148530228 -44.20000000000004
  endloop
endfacet
facet normal 0.0 0.0 1.0
  outer loop
    vertex 747.0387088617558 222.37117148530228 -43.500000000000036
    vertex 748.5387088617557 223.37117148530228 -43.500000000000036
    vertex 747.0387088617558 227.37117148530228 -43.500000000000036
  endloop
endfacet
facet normal 0.0 0.0 1.0
  outer loop
    vertex 748.5387088617557 223.37117148530228 -43.500000000000036
    vertex 747.0387088617558 222.37117148530228 -43.500000000000036
    vertex 756.3387088617558 222.37117148530228 -43.500000000000036
  endloop
endfacet
facet normal 0.0 0.0 1.0
  outer loop
    vertex 748.5387088617557 223.37117148530228 -43.500000000000036
    vertex 756.3387088617558 222.37117148530228 -43.500000000000036
    vertex 754.4387088617558 223.37117148530228 -43.500000000000036
  endloop
endfacet
facet normal 0.0 0.0 1.0
  outer loop
    vertex 754.4387088617558 223.37117148530228 -43.500000000000036
    vertex 756.3387088617558 222.37117148530228 -43.500000000000036
    vertex 754.4387088617558 226.37117148530228 -43.500000000000036
  endloop
endfacet
facet normal 0.0 0.0 1.0
  outer loop
    vertex 747.0387088617558 227.37117148530228 -43.500000000000036
    vertex 748.5387088617557 226.37117148530228 -43.500000000000036
    vertex 756.3387088617558 227.37117148530228 -43.500000000000036
  endloop
endfacet
facet normal 0.0 0.0 1.0
  outer loop
    vertex 748.5387088617557 226.37117148530228 -43.500000000000036
    vertex 747.0387088617558 227.37117148530228 -43.500000000000036
    vertex 748.5387088617557 223.37117148530228 -43.500000000000036
  endloop
endfacet
facet normal 0.0 0.0 1.0
  outer loop
    vertex 756.3387088617558 227.37117148530228 -43.500000000000036
    vertex 748.5387088617557 226.37117148530228 -43.500000000000036
    vertex 754.4387088617558 226.37117148530228 -43.500000000000036
  endloop
endfacet
facet normal 0.0 0.0 1.0
  outer loop
    vertex 756.3387088617558 227.37117148530228 -43.500000000000036
    vertex 754.4387088617558 226.37117148530228 -43.500000000000036
    vertex 756.3387088617558 222.37117148530228 -43.500000000000036
  endloop
endfacet
facet normal 0.0 0.0 1.0
  outer loop
    vertex 759.3387088617558 222.37117148530228 -43.500000000000036
    vertex 761.2170415846088 223.37117148530228 -43.500000000000036
    vertex 759.3387088617558 227.37117148530228 -43.500000000000036
  endloop
endfacet
facet normal 0.0 0.0 1.0
  outer loop
    vertex 761.2170415846088 223.37117148530228 -43.500000000000036
    vertex 759.3387088617558 222.37117148530228 -43.500000000000036
    vertex 769.0170415846086 222.37117148530228 -43.500000000000036
  endloop
endfacet
facet normal 0.0 0.0 1.0
  outer loop
    vertex 761.2170415846088 223.37117148530228 -43.500000000000036
    vertex 769.0170415846086 222.37117148530228 -43.500000000000036
    vertex 767.1170415846086 223.37117148530228 -43.500000000000036
  endloop
endfacet
facet normal 0.0 0.0 1.0
  outer loop
    vertex 767.1170415846086 223.37117148530228 -43.500000000000036
    vertex 769.0170415846086 222.37117148530228 -43.500000000000036
    vertex 767.1170415846086 226.37117148530228 -43.500000000000036
  endloop
endfacet
facet normal 0.0 0.0 1.0
  outer loop
    vertex 759.3387088617558 227.37117148530228 -43.500000000000036
    vertex 761.2170415846088 226.37117148530228 -43.500000000000036
    vertex 769.0170415846086 227.37117148530228 -43.500000000000036
  endloop
endfacet
facet normal 0.0 0.0 1.0
  outer loop
    vertex 761.2170415846088 226.37117148530228 -43.500000000000036
    vertex 759.3387088617558 227.37117148530228 -43.500000000000036
    vertex 761.2170415846088 223.37117148530228 -43.500000000000036
  endloop
endfacet
facet normal 0.0 0.0 1.0
  outer loop
    vertex 769.0170415846086 227.37117148530228 -43.500000000000036
    vertex 761.2170415846088 226.37117148530228 -43.500000000000036
    vertex 767.1170415846086 226.37117148530228 -43.500000000000036
  endloop
endfacet
facet normal 0.0 0.0 1.0
  outer loop
    vertex 769.0170415846086 227.37117148530228 -43.500000000000036
    vertex 767.1170415846086 226.37117148530228 -43.500000000000036
    vertex 769.0170415846086 222.37117148530228 -43.500000000000036
  endloop
endfacet
facet normal 0.0 0.0 1.0
  outer loop
    vertex 772.0170415846087 222.37117148530228 -43.500000000000036
    vertex 773.9387088617557 223.37117148530228 -43.500000000000036
    vertex 772.0170415846087 227.37117148530228 -43.500000000000036
  endloop
endfacet
facet normal 0.0 0.0 1.0
  outer loop
    vertex 773.9387088617557 223.37117148530228 -43.500000000000036
    vertex 772.0170415846087 222.37117148530228 -43.500000000000036
    vertex 781.7387088617556 222.37117148530228 -43.500000000000036
  endloop
endfacet
facet normal 0.0 0.0 1.0
  outer loop
    vertex 773.9387088617557 223.37117148530228 -43.500000000000036
    vertex 781.7387088617556 222.37117148530228 -43.500000000000036
    vertex 779.8387088617558 223.37117148530228 -43.500000000000036
  endloop
endfacet
facet normal 0.0 0.0 1.0
  outer loop
    vertex 779.8387088617558 223.37117148530228 -43.500000000000036
    vertex 781.7387088617556 222.37117148530228 -43.500000000000036
    vertex 779.8387088617558 226.37117148530228 -43.500000000000036
  endloop
endfacet
facet normal 0.0 0.0 1.0
  outer loop
    vertex 772.0170415846087 227.37117148530228 -43.500000000000036
    vertex 773.9387088617557 226.37117148530228 -43.500000000000036
    vertex 781.7387088617556 227.37117148530228 -43.500000000000036
  endloop
endfacet
facet normal 0.0 0.0 1.0
  outer loop
    vertex 773.9387088617557 226.37117148530228 -43.500000000000036
    vertex 772.0170415846087 227.37117148530228 -43.500000000000036
    vertex 773.9387088617557 223.37117148530228 -43.500000000000036
  endloop
endfacet
facet normal 0.0 0.0 1.0
  outer loop
    vertex 781.7387088617556 227.37117148530228 -43.500000000000036
    vertex 773.9387088617557 226.37117148530228 -43.500000000000036
    vertex 779.8387088617558 226.37117148530228 -43.500000000000036
  endloop
endfacet
facet normal 0.0 0.0 1.0
  outer loop
    vertex 781.7387088617556 227.37117148530228 -43.500000000000036
    vertex 779.8387088617558 226.37117148530228 -43.500000000000036
    vertex 781.7387088617556 222.37117148530228 -43.500000000000036
  endloop
endfacet
facet normal 0.0 0.0 1.0
  outer loop
    vertex 759.3387088617558 223.37117148530228 -43.90000000000004
    vertex 756.3387088617558 226.37117148530228 -43.90000000000004
    vertex 756.3387088617558 223.37117148530228 -43.90000000000004
  endloop
endfacet
facet normal 0.0 0.0 1.0
  outer loop
    vertex 756.3387088617558 226.37117148530228 -43.90000000000004
    vertex 759.3387088617558 223.37117148530228 -43.90000000000004
    vertex 759.3387088617558 226.37117148530228 -43.90000000000004
  endloop
endfacet
facet normal 0.0 0.0 1.0
  outer loop
    vertex 772.0170415846087 223.37117148530228 -43.90000000000004
    vertex 769.0170415846086 226.37117148530228 -43.90000000000004
    vertex 769.0170415846086 223.37117148530228 -43.90000000000004
  endloop
endfacet
facet normal 0.0 0.0 1.0
  outer loop
    vertex 769.0170415846086 226.37117148530228 -43.90000000000004
    vertex 772.0170415846087 223.37117148530228 -43.90000000000004
    vertex 772.0170415846087 226.37117148530228 -43.90000000000004
  endloop
endfacet
facet normal 0.0 0.0 1.0
  outer loop
    vertex 784.7387088617559 223.37117148530228 -43.90000000000004
    vertex 781.7387088617556 226.37117148530228 -43.90000000000004
    vertex 781.7387088617556 223.37117148530228 -43.90000000000004
  endloop
endfacet
facet normal 0.0 0.0 1.0
  outer loop
    vertex 781.7387088617556 226.37117148530228 -43.90000000000004
    vertex 784.7387088617559 223.37117148530228 -43.90000000000004
    vertex 784.7387088617559 226.37117148530228 -43.90000000000004
  endloop
endfacet
facet normal 0.0 -1.0 0.0
  outer loop
    vertex 756.3387088617558 222.37117148530228 -43.500000000000036
    vertex 747.0387088617558 222.37117148530228 -44.20000000000004
    vertex 756.3387088617558 222.37117148530228 -44.20000000000004
  endloop
endfacet
facet normal 0.0 -1.0 0.0
  outer loop
    vertex 747.0387088617558 222.37117148530228 -44.20000000000004
    vertex 756.3387088617558 222.37117148530228 -43.500000000000036
    vertex 747.0387088617558 222.37117148530228 -43.500000000000036
  endloop
endfacet
facet normal 0.0 -1.0 0.0
  outer loop
    vertex 769.0170415846086 222.37117148530228 -43.500000000000036
    vertex 759.3387088617558 222.37117148530228 -44.20000000000004
    vertex 769.0170415846086 222.37117148530228 -44.20000000000004
  endloop
endfacet
facet normal 0.0 -1.0 0.0
  outer loop
    vertex 759.3387088617558 222.37117148530228 -44.20000000000004
    vertex 769.0170415846086 222.37117148530228 -43.500000000000036
    vertex 759.3387088617558 222.37117148530228 -43.500000000000036
  endloop
endfacet
facet normal 0.0 -1.0 0.0
  outer loop
    vertex 781.7387088617556 222.37117148530228 -43.500000000000036
    vertex 772.0170415846087 222.37117148530228 -44.20000000000004
    vertex 781.7387088617556 222.37117148530228 -44.20000000000004
  endloop
endfacet
facet normal 0.0 -1.0 0.0
  outer loop
    vertex 772.0170415846087 222.37117148530228 -44.20000000000004
    vertex 781.7387088617556 222.37117148530228 -43.500000000000036
    vertex 772.0170415846087 222.37117148530228 -43.500000000000036
  endloop
endfacet
facet normal 0.0 -1.0 0.0
  outer loop
    vertex 759.3387088617558 223.37117148530228 -43.90000000000004
    vertex 756.3387088617558 223.37117148530228 -44.20000000000004
    vertex 759.3387088617558 223.37117148530228 -44.20000000000004
  endloop
endfacet
facet normal 0.0 -1.0 0.0
  outer loop
    vertex 756.3387088617558 223.37117148530228 -44.20000000000004
    vertex 759.3387088617558 223.37117148530228 -43.90000000000004
    vertex 756.3387088617558 223.37117148530228 -43.90000000000004
  endloop
endfacet
facet normal -1.0 0.0 0.0
  outer loop
    vertex 759.3387088617558 222.37117148530228 -43.500000000000036
    vertex 759.3387088617558 223.37117148530228 -43.90000000000004
    vertex 759.3387088617558 222.37117148530228 -44.20000000000004
  endloop
endfacet
facet normal -1.0 0.0 0.0
  outer loop
    vertex 759.3387088617558 223.37117148530228 -43.90000000000004
    vertex 759.3387088617558 222.37117148530228 -43.500000000000036
    vertex 759.3387088617558 227.37117148530228 -43.500000000000036
  endloop
endfacet
facet normal -1.0 0.0 0.0
  outer loop
    vertex 759.3387088617558 223.37117148530228 -43.90000000000004
    vertex 759.3387088617558 227.37117148530228 -43.500000000000036
    vertex 759.3387088617558 226.37117148530228 -43.90000000000004
  endloop
endfacet
facet normal -1.0 0.0 0.0
  outer loop
    vertex 759.3387088617558 226.37117148530228 -43.90000000000004
    vertex 759.3387088617558 227.37117148530228 -43.500000000000036
    vertex 759.3387088617558 226.37117148530228 -44.20000000000004
  endloop
endfacet
facet normal -1.0 0.0 0.0
  outer loop
    vertex 759.3387088617558 226.37117148530228 -44.20000000000004
    vertex 759.3387088617558 227.37117148530228 -43.500000000000036
    vertex 759.3387088617558 227.37117148530228 -44.20000000000004
  endloop
endfacet
facet normal -1.0 0.0 0.0
  outer loop
    vertex 759.3387088617558 223.37117148530228 -44.20000000000004
    vertex 759.3387088617558 222.37117148530228 -44.20000000000004
    vertex 759.3387088617558 223.37117148530228 -43.90000000000004
  endloop
endfacet
facet normal 1.0 0.0 0.0
  outer loop
    vertex 756.3387088617558 227.37117148530228 -44.20000000000004
    vertex 756.3387088617558 226.37117148530228 -43.90000000000004
    vertex 756.3387088617558 226.37117148530228 -44.20000000000004
  endloop
endfacet
facet normal 1.0 0.0 0.0
  outer loop
    vertex 756.3387088617558 223.37117148530228 -44.20000000000004
    vertex 756.3387088617558 222.37117148530228 -43.500000000000036
    vertex 756.3387088617558 222.37117148530228 -44.20000000000004
  endloop
endfacet
facet normal 1.0 0.0 0.0
  outer loop
    vertex 756.3387088617558 222.37117148530228 -43.500000000000036
    vertex 756.3387088617558 223.37117148530228 -44.20000000000004
    vertex 756.3387088617558 223.37117148530228 -43.90000000000004
  endloop
endfacet
facet normal 1.0 0.0 0.0
  outer loop
    vertex 756.3387088617558 222.37117148530228 -43.500000000000036
    vertex 756.3387088617558 223.37117148530228 -43.90000000000004
    vertex 756.3387088617558 227.37117148530228 -43.500000000000036
  endloop
endfacet
facet normal 1.0 0.0 0.0
  outer loop
    vertex 756.3387088617558 227.37117148530228 -43.500000000000036
    vertex 756.3387088617558 223.37117148530228 -43.90000000000004
    vertex 756.3387088617558 226.37117148530228 -43.90000000000004
  endloop
endfacet
facet normal 1.0 0.0 0.0
  outer loop
    vertex 756.3387088617558 227.37117148530228 -43.500000000000036
    vertex 756.3387088617558 226.37117148530228 -43.90000000000004
    vertex 756.3387088617558 227.37117148530228 -44.20000000000004
  endloop
endfacet
facet normal 0.0 -1.0 0.0
  outer loop
    vertex 772.0170415846087 223.37117148530228 -43.90000000000004
    vertex 769.0170415846086 223.37117148530228 -44.20000000000004
    vertex 772.0170415846087 223.37117148530228 -44.20000000000004
  endloop
endfacet
facet normal 0.0 -1.0 0.0
  outer loop
    vertex 769.0170415846086 223.37117148530228 -44.20000000000004
    vertex 772.0170415846087 223.37117148530228 -43.90000000000004
    vertex 769.0170415846086 223.37117148530228 -43.90000000000004
  endloop
endfacet
facet normal -1.0 0.0 0.0
  outer loop
    vertex 772.0170415846087 222.37117148530228 -43.500000000000036
    vertex 772.0170415846087 223.37117148530228 -43.90000000000004
    vertex 772.0170415846087 222.37117148530228 -44.20000000000004
  endloop
endfacet
facet normal -1.0 0.0 0.0
  outer loop
    vertex 772.0170415846087 223.37117148530228 -43.90000000000004
    vertex 772.0170415846087 222.37117148530228 -43.500000000000036
    vertex 772.0170415846087 227.37117148530228 -43.500000000000036
  endloop
endfacet
facet normal -1.0 0.0 0.0
  outer loop
    vertex 772.0170415846087 223.37117148530228 -43.90000000000004
    vertex 772.0170415846087 227.37117148530228 -43.500000000000036
    vertex 772.0170415846087 226.37117148530228 -43.90000000000004
  endloop
endfacet
facet normal -1.0 0.0 0.0
  outer loop
    vertex 772.0170415846087 226.37117148530228 -43.90000000000004
    vertex 772.0170415846087 227.37117148530228 -43.500000000000036
    vertex 772.0170415846087 226.37117148530228 -44.20000000000004
  endloop
endfacet
facet normal -1.0 0.0 0.0
  outer loop
    vertex 772.0170415846087 226.37117148530228 -44.20000000000004
    vertex 772.0170415846087 227.37117148530228 -43.500000000000036
    vertex 772.0170415846087 227.37117148530228 -44.20000000000004
  endloop
endfacet
facet normal -1.0 0.0 0.0
  outer loop
    vertex 772.0170415846087 223.37117148530228 -44.20000000000004
    vertex 772.0170415846087 222.37117148530228 -44.20000000000004
    vertex 772.0170415846087 223.37117148530228 -43.90000000000004
  endloop
endfacet
facet normal 1.0 0.0 0.0
  outer loop
    vertex 769.0170415846086 227.37117148530228 -44.20000000000004
    vertex 769.0170415846086 226.37117148530228 -43.90000000000004
    vertex 769.0170415846086 226.37117148530228 -44.20000000000004
  endloop
endfacet
facet normal 1.0 0.0 0.0
  outer loop
    vertex 769.0170415846086 223.37117148530228 -44.20000000000004
    vertex 769.0170415846086 222.37117148530228 -43.500000000000036
    vertex 769.0170415846086 222.37117148530228 -44.20000000000004
  endloop
endfacet
facet normal 1.0 0.0 0.0
  outer loop
    vertex 769.0170415846086 222.37117148530228 -43.500000000000036
    vertex 769.0170415846086 223.37117148530228 -44.20000000000004
    vertex 769.0170415846086 223.37117148530228 -43.90000000000004
  endloop
endfacet
facet normal 1.0 0.0 0.0
  outer loop
    vertex 769.0170415846086 222.37117148530228 -43.500000000000036
    vertex 769.0170415846086 223.37117148530228 -43.90000000000004
    vertex 769.0170415846086 227.37117148530228 -43.500000000000036
  endloop
endfacet
facet normal 1.0 0.0 0.0
  outer loop
    vertex 769.0170415846086 227.37117148530228 -43.500000000000036
    vertex 769.0170415846086 223.37117148530228 -43.90000000000004
    vertex 769.0170415846086 226.37117148530228 -43.90000000000004
  endloop
endfacet
facet normal 1.0 0.0 0.0
  outer loop
    vertex 769.0170415846086 227.37117148530228 -43.500000000000036
    vertex 769.0170415846086 226.37117148530228 -43.90000000000004
    vertex 769.0170415846086 227.37117148530228 -44.20000000000004
  endloop
endfacet
facet normal 0.0 -1.0 0.0
  outer loop
    vertex 784.7387088617559 223.37117148530228 -43.90000000000004
    vertex 781.7387088617556 223.37117148530228 -44.20000000000004
    vertex 784.7387088617559 223.37117148530228 -44.20000000000004
  endloop
endfacet
facet normal 0.0 -1.0 0.0
  outer loop
    vertex 781.7387088617556 223.37117148530228 -44.20000000000004
    vertex 784.7387088617559 223.37117148530228 -43.90000000000004
    vertex 781.7387088617556 223.37117148530228 -43.90000000000004
  endloop
endfacet
facet normal -1.0 0.0 0.0
  outer loop
    vertex 784.7387088617559 222.37117148530228 -43.500000000000036
    vertex 784.7387088617559 223.37117148530228 -43.90000000000004
    vertex 784.7387088617559 222.37117148530228 -44.20000000000004
  endloop
endfacet
facet normal -1.0 0.0 0.0
  outer loop
    vertex 784.7387088617559 223.37117148530228 -43.90000000000004
    vertex 784.7387088617559 222.37117148530228 -43.500000000000036
    vertex 784.7387088617559 227.37117148530228 -43.500000000000036
  endloop
endfacet
facet normal -1.0 0.0 0.0
  outer loop
    vertex 784.7387088617559 223.37117148530228 -43.90000000000004
    vertex 784.7387088617559 227.37117148530228 -43.500000000000036
    vertex 784.7387088617559 226.37117148530228 -43.90000000000004
  endloop
endfacet
facet normal -1.0 0.0 0.0
  outer loop
    vertex 784.7387088617559 226.37117148530228 -43.90000000000004
    vertex 784.7387088617559 227.37117148530228 -43.500000000000036
    vertex 784.7387088617559 226.37117148530228 -44.20000000000004
  endloop
endfacet
facet normal -1.0 0.0 0.0
  outer loop
    vertex 784.7387088617559 226.37117148530228 -44.20000000000004
    vertex 784.7387088617559 227.37117148530228 -43.500000000000036
    vertex 784.7387088617559 227.37117148530228 -44.20000000000004
  endloop
endfacet
facet normal -1.0 0.0 0.0
  outer loop
    vertex 784.7387088617559 223.37117148530228 -44.20000000000004
    vertex 784.7387088617559 222.37117148530228 -44.20000000000004
    vertex 784.7387088617559 223.37117148530228 -43.90000000000004
  endloop
endfacet
facet normal 1.0 0.0 0.0
  outer loop
    vertex 781.7387088617556 227.37117148530228 -44.20000000000004
    vertex 781.7387088617556 226.37117148530228 -43.90000000000004
    vertex 781.7387088617556 226.37117148530228 -44.20000000000004
  endloop
endfacet
facet normal 1.0 0.0 0.0
  outer loop
    vertex 781.7387088617556 223.37117148530228 -44.20000000000004
    vertex 781.7387088617556 222.37117148530228 -43.500000000000036
    vertex 781.7387088617556 222.37117148530228 -44.20000000000004
  endloop
endfacet
facet normal 1.0 0.0 0.0
  outer loop
    vertex 781.7387088617556 222.37117148530228 -43.500000000000036
    vertex 781.7387088617556 223.37117148530228 -44.20000000000004
    vertex 781.7387088617556 223.37117148530228 -43.90000000000004
  endloop
endfacet
facet normal 1.0 0.0 0.0
  outer loop
    vertex 781.7387088617556 222.37117148530228 -43.500000000000036
    vertex 781.7387088617556 223.37117148530228 -43.90000000000004
    vertex 781.7387088617556 227.37117148530228 -43.500000000000036
  endloop
endfacet
facet normal 1.0 0.0 0.0
  outer loop
    vertex 781.7387088617556 227.37117148530228 -43.500000000000036
    vertex 781.7387088617556 223.37117148530228 -43.90000000000004
    vertex 781.7387088617556 226.37117148530228 -43.90000000000004
  endloop
endfacet
facet normal 1.0 0.0 0.0
  outer loop
    vertex 781.7387088617556 227.37117148530228 -43.500000000000036
    vertex 781.7387088617556 226.37117148530228 -43.90000000000004
    vertex 781.7387088617556 227.37117148530228 -44.20000000000004
  endloop
endfacet
facet normal 0.0 1.0 0.0
  outer loop
    vertex 759.3387088617558 227.37117148530228 -43.500000000000036
    vertex 769.0170415846086 227.37117148530228 -44.20000000000004
    vertex 759.3387088617558 227.37117148530228 -44.20000000000004
  endloop
endfacet
facet normal 0.0 1.0 0.0
  outer loop
    vertex 769.0170415846086 227.37117148530228 -44.20000000000004
    vertex 759.3387088617558 227.37117148530228 -43.500000000000036
    vertex 769.0170415846086 227.37117148530228 -43.500000000000036
  endloop
endfacet
facet normal 0.0 1.0 0.0
  outer loop
    vertex 772.0170415846087 227.37117148530228 -43.500000000000036
    vertex 781.7387088617556 227.37117148530228 -44.20000000000004
    vertex 772.0170415846087 227.37117148530228 -44.20000000000004
  endloop
endfacet
facet normal 0.0 1.0 0.0
  outer loop
    vertex 781.7387088617556 227.37117148530228 -44.20000000000004
    vertex 772.0170415846087 227.37117148530228 -43.500000000000036
    vertex 781.7387088617556 227.37117148530228 -43.500000000000036
  endloop
endfacet
facet normal 0.0 1.0 0.0
  outer loop
    vertex 784.7387088617559 227.37117148530228 -43.500000000000036
    vertex 794.0170415846086 227.37117148530228 -44.20000000000004
    vertex 784.7387088617559 227.37117148530228 -44.20000000000004
  endloop
endfacet
facet normal 0.0 1.0 0.0
  outer loop
    vertex 794.0170415846086 227.37117148530228 -44.20000000000004
    vertex 784.7387088617559 227.37117148530228 -43.500000000000036
    vertex 794.0170415846086 227.37117148530228 -43.500000000000036
  endloop
endfacet
facet normal 0.0 1.0 0.0
  outer loop
    vertex 781.7387088617556 226.37117148530228 -43.90000000000004
    vertex 784.7387088617559 226.37117148530228 -44.20000000000004
    vertex 781.7387088617556 226.37117148530228 -44.20000000000004
  endloop
endfacet
facet normal 0.0 1.0 0.0
  outer loop
    vertex 784.7387088617559 226.37117148530228 -44.20000000000004
    vertex 781.7387088617556 226.37117148530228 -43.90000000000004
    vertex 784.7387088617559 226.37117148530228 -43.90000000000004
  endloop
endfacet
facet normal 0.0 1.0 0.0
  outer loop
    vertex 769.0170415846086 226.37117148530228 -43.90000000000004
    vertex 772.0170415846087 226.37117148530228 -44.20000000000004
    vertex 769.0170415846086 226.37117148530228 -44.20000000000004
  endloop
endfacet
facet normal 0.0 1.0 0.0
  outer loop
    vertex 772.0170415846087 226.37117148530228 -44.20000000000004
    vertex 769.0170415846086 226.37117148530228 -43.90000000000004
    vertex 772.0170415846087 226.37117148530228 -43.90000000000004
  endloop
endfacet
facet normal 0.0 1.0 0.0
  outer loop
    vertex 756.3387088617558 226.37117148530228 -43.90000000000004
    vertex 759.3387088617558 226.37117148530228 -44.20000000000004
    vertex 756.3387088617558 226.37117148530228 -44.20000000000004
  endloop
endfacet
facet normal 0.0 1.0 0.0
  outer loop
    vertex 759.3387088617558 226.37117148530228 -44.20000000000004
    vertex 756.3387088617558 226.37117148530228 -43.90000000000004
    vertex 759.3387088617558 226.37117148530228 -43.90000000000004
  endloop
endfacet
endsolid mlplayer-case
