solid mlplayer-case
facet normal 0.0 1.0 0.0
  outer loop
    vertex 508.138708861756 227.37117148530226 -43.500000000000036
    vertex 517.4387088617559 227.37117148530226 -44.20000000000004
    vertex 508.138708861756 227.37117148530226 -44.20000000000004
  endloop
endfacet
facet normal 0.0 1.0 0.0
  outer loop
    vertex 517.4387088617559 227.37117148530226 -44.20000000000004
    vertex 508.138708861756 227.37117148530226 -43.500000000000036
    vertex 517.4387088617559 227.37117148530226 -43.500000000000036
  endloop
endfacet
facet normal 0.0 0.7071067811864677 0.7071067811866273
  outer loop
    vertex 553.6170415846088 226.17117148530224 -40.30000000000004
    vertex 547.7170415846089 226.37117148530228 -40.500000000000036
    vertex 547.7170415846089 226.17117148530224 -40.30000000000004
  endloop
endfacet
facet normal 0.0 0.7071067811864677 0.7071067811866273
  outer loop
    vertex 547.7170415846089 226.37117148530228 -40.500000000000036
    vertex 553.6170415846088 226.17117148530224 -40.30000000000004
    vertex 553.6170415846088 226.37117148530228 -40.500000000000036
  endloop
endfacet
facet normal 0.0 -0.7071067811864677 0.7071067811866273
  outer loop
    vertex 553.6170415846088 223.37117148530226 -40.500000000000036
    vertex 547.7170415846089 223.5711714853023 -40.30000000000004
    vertex 547.7170415846089 223.37117148530226 -40.500000000000036
  endloop
endfacet
facet normal 0.0 -0.7071067811864677 0.7071067811866273
  outer loop
    vertex 547.7170415846089 223.5711714853023 -40.30000000000004
    vertex 553.6170415846088 223.37117148530226 -40.500000000000036
    vertex 553.6170415846088 223.5711714853023 -40.30000000000004
  endloop
endfacet
facet normal -1.0 1.5154594871057085e-30 2.9018742227048915e-14
  outer loop
    vertex 547.7170415846089 223.5711714853023 -40.30000000000004
    vertex 547.7170415846088 223.37117148530226 -43.500000000000036
    vertex 547.7170415846089 223.37117148530226 -40.500000000000036
  endloop
endfacet
facet normal -1.0 1.5154594871057085e-30 2.9018742227048915e-14
  outer loop
    vertex 547.7170415846088 223.37117148530226 -43.500000000000036
    vertex 547.7170415846089 223.5711714853023 -40.30000000000004
    vertex 547.7170415846088 226.37117148530226 -43.500000000000036
  endloop
endfacet
facet normal -1.0 1.5154594871057085e-30 2.9018742227048915e-14
  outer loop
    vertex 547.7170415846088 226.37117148530226 -43.500000000000036
    vertex 547.7170415846089 223.5711714853023 -40.30000000000004
    vertex 547.7170415846089 226.17117148530224 -40.30000000000004
  endloop
endfacet
facet normal -1.0 1.5154594871057085e-30 2.9018742227048915e-14
  outer loop
    vertex 547.7170415846088 226.37117148530226 -43.500000000000036
    vertex 547.7170415846089 226.17117148530224 -40.30000000000004
    vertex 547.7170415846089 226.37117148530228 -40.500000000000036
  endloop
endfacet
facet normal 0.0 0.0 1.0
  outer loop
    vertex 540.9387088617559 223.57117148530224 -40.30000000000004
    vertex 535.0387088617559 226.17117148530224 -40.30000000000004
    vertex 535.0387088617559 223.57117148530224 -40.30000000000004
  endloop
endfacet
facet normal 0.0 0.0 1.0
  outer loop
    vertex 535.0387088617559 226.17117148530224 -40.30000000000004
    vertex 540.9387088617559 223.57117148530224 -40.30000000000004
    vertex 540.9387088617559 226.17117148530224 -40.30000000000004
  endloop
endfacet
facet normal -8.270634576670666e-29 -0.7071067811865476 0.7071067811865476
  outer loop
    vertex 540.9387088617559 223.57117148530224 -40.30000000000004
    vertex 535.0387088617559 223.37117148530226 -40.500000000000036
    vertex 540.9387088617559 223.37117148530226 -40.500000000000036
  endloop
endfacet
facet normal -8.270634576670666e-29 -0.7071067811865476 0.7071067811865476
  outer loop
    vertex 535.0387088617559 223.37117148530226 -40.500000000000036
    vertex 540.9387088617559 223.57117148530224 -40.30000000000004
    vertex 535.0387088617559 223.57117148530224 -40.30000000000004
  endloop
endfacet
facet normal 1.0 0.0 0.0
  outer loop
    vertex 555.1170415846088 227.37117148530226 -44.20000000000004
    vertex 555.1170415846088 222.37117148530226 -43.500000000000036
    vertex 555.1170415846088 222.37117148530226 -44.20000000000004
  endloop
endfacet
facet normal 1.0 0.0 0.0
  outer loop
    vertex 555.1170415846088 222.37117148530226 -43.500000000000036
    vertex 555.1170415846088 227.37117148530226 -44.20000000000004
    vertex 555.1170415846088 227.37117148530226 -43.500000000000036
  endloop
endfacet
facet normal 0.0 0.0 -1.0
  outer loop
    vertex 555.1170415846088 227.37117148530226 -44.20000000000004
    vertex 545.838708861756 226.37117148530226 -44.20000000000004
    vertex 545.838708861756 227.37117148530226 -44.20000000000004
  endloop
endfacet
facet normal 0.0 0.0 -1.0
  outer loop
    vertex 545.838708861756 226.37117148530226 -44.20000000000004
    vertex 555.1170415846088 227.37117148530226 -44.20000000000004
    vertex 545.838708861756 223.37117148530226 -44.20000000000004
  endloop
endfacet
facet normal 0.0 0.0 -1.0
  outer loop
    vertex 545.838708861756 223.37117148530226 -44.20000000000004
    vertex 555.1170415846088 227.37117148530226 -44.20000000000004
    vertex 545.838708861756 222.37117148530226 -44.20000000000004
  endloop
endfacet
facet normal 0.0 0.0 -1.0
  outer loop
    vertex 545.838708861756 222.37117148530226 -44.20000000000004
    vertex 555.1170415846088 227.37117148530226 -44.20000000000004
    vertex 555.1170415846088 222.37117148530226 -44.20000000000004
  endloop
endfacet
facet normal 0.0 0.0 -1.0
  outer loop
    vertex 545.838708861756 226.37117148530226 -44.20000000000004
    vertex 542.8387088617559 223.37117148530226 -44.20000000000004
    vertex 542.8387088617559 226.37117148530226 -44.20000000000004
  endloop
endfacet
facet normal 0.0 0.0 -1.0
  outer loop
    vertex 542.8387088617559 223.37117148530226 -44.20000000000004
    vertex 545.838708861756 226.37117148530226 -44.20000000000004
    vertex 545.838708861756 223.37117148530226 -44.20000000000004
  endloop
endfacet
facet normal 0.0 0.0 -1.0
  outer loop
    vertex 542.8387088617559 227.37117148530226 -44.20000000000004
    vertex 533.1170415846088 226.37117148530226 -44.20000000000004
    vertex 533.1170415846088 227.37117148530226 -44.20000000000004
  endloop
endfacet
facet normal 0.0 0.0 -1.0
  outer loop
    vertex 533.1170415846088 226.37117148530226 -44.20000000000004
    vertex 542.8387088617559 227.37117148530226 -44.20000000000004
    vertex 533.1170415846088 223.37117148530226 -44.20000000000004
  endloop
endfacet
facet normal 0.0 0.0 -1.0
  outer loop
    vertex 533.1170415846088 223.37117148530226 -44.20000000000004
    vertex 542.8387088617559 227.37117148530226 -44.20000000000004
    vertex 533.1170415846088 222.37117148530226 -44.20000000000004
  endloop
endfacet
facet normal 0.0 0.0 -1.0
  outer loop
    vertex 533.1170415846088 222.37117148530226 -44.20000000000004
    vertex 542.8387088617559 227.37117148530226 -44.20000000000004
    vertex 542.8387088617559 222.37117148530226 -44.20000000000004
  endloop
endfacet
facet normal 0.0 0.0 -1.0
  outer loop
    vertex 542.8387088617559 222.37117148530226 -44.20000000000004
    vertex 542.8387088617559 227.37117148530226 -44.20000000000004
    vertex 542.8387088617559 226.37117148530226 -44.20000000000004
  endloop
endfacet
facet normal 0.0 0.0 -1.0
  outer loop
    vertex 542.8387088617559 222.37117148530226 -44.20000000000004
    vertex 542.8387088617559 226.37117148530226 -44.20000000000004
    vertex 542.8387088617559 223.37117148530226 -44.20000000000004
  endloop
endfacet
facet normal 0.0 0.0 -1.0
  outer loop
    vertex 533.1170415846088 226.37117148530226 -44.20000000000004
    vertex 530.1170415846088 223.37117148530226 -44.20000000000004
    vertex 530.1170415846088 226.37117148530226 -44.20000000000004
  endloop
endfacet
facet normal 0.0 0.0 -1.0
  outer loop
    vertex 530.1170415846088 223.37117148530226 -44.20000000000004
    vertex 533.1170415846088 226.37117148530226 -44.20000000000004
    vertex 533.1170415846088 223.37117148530226 -44.20000000000004
  endloop
endfacet
facet normal 0.0 0.0 -1.0
  outer loop
    vertex 530.1170415846088 227.37117148530226 -44.20000000000004
    vertex 520.438708861756 226.37117148530226 -44.20000000000004
    vertex 520.438708861756 227.37117148530226 -44.20000000000004
  endloop
endfacet
facet normal 0.0 0.0 -1.0
  outer loop
    vertex 520.438708861756 226.37117148530226 -44.20000000000004
    vertex 530.1170415846088 227.37117148530226 -44.20000000000004
    vertex 520.438708861756 223.37117148530226 -44.20000000000004
  endloop
endfacet
facet normal 0.0 0.0 -1.0
  outer loop
    vertex 520.438708861756 223.37117148530226 -44.20000000000004
    vertex 530.1170415846088 227.37117148530226 -44.20000000000004
    vertex 520.438708861756 222.37117148530226 -44.20000000000004
  endloop
endfacet
facet normal 0.0 0.0 -1.0
  outer loop
    vertex 520.438708861756 222.37117148530226 -44.20000000000004
    vertex 530.1170415846088 227.37117148530226 -44.20000000000004
    vertex 530.1170415846088 222.37117148530226 -44.20000000000004
  endloop
endfacet
facet normal 0.0 0.0 -1.0
  outer loop
    vertex 530.1170415846088 222.37117148530226 -44.20000000000004
    vertex 530.1170415846088 227.37117148530226 -44.20000000000004
    vertex 530.1170415846088 226.37117148530226 -44.20000000000004
  endloop
endfacet
facet normal 0.0 0.0 -1.0
  outer loop
    vertex 530.1170415846088 222.37117148530226 -44.20000000000004
    vertex 530.1170415846088 226.37117148530226 -44.20000000000004
    vertex 530.1170415846088 223.37117148530226 -44.20000000000004
  endloop
endfacet
facet normal 0.0 0.0 -1.0
  outer loop
    vertex 520.438708861756 226.37117148530226 -44.20000000000004
    vertex 517.4387088617559 223.37117148530226 -44.20000000000004
    vertex 517.4387088617559 226.37117148530226 -44.20000000000004
  endloop
endfacet
facet normal 0.0 0.0 -1.0
  outer loop
    vertex 517.4387088617559 223.37117148530226 -44.20000000000004
    vertex 520.438708861756 226.37117148530226 -44.20000000000004
    vertex 520.438708861756 223.37117148530226 -44.20000000000004
  endloop
endfacet
facet normal 0.0 0.0 -1.0
  outer loop
    vertex 517.4387088617559 227.37117148530226 -44.20000000000004
    vertex 508.138708861756 222.37117148530226 -44.20000000000004
    vertex 508.138708861756 227.37117148530226 -44.20000000000004
  endloop
endfacet
facet normal 0.0 0.0 -1.0
  outer loop
    vertex 508.138708861756 222.37117148530226 -44.20000000000004
    vertex 517.4387088617559 227.37117148530226 -44.20000000000004
    vertex 517.4387088617559 222.37117148530226 -44.20000000000004
  endloop
endfacet
facet normal 0.0 0.0 -1.0
  outer loop
    vertex 517.4387088617559 222.37117148530226 -44.20000000000004
    vertex 517.4387088617559 227.37117148530226 -44.20000000000004
    vertex 517.4387088617559 226.37117148530226 -44.20000000000004
  endloop
endfacet
facet normal 0.0 0.0 -1.0
  outer loop
    vertex 517.4387088617559 222.37117148530226 -44.20000000000004
    vertex 517.4387088617559 226.37117148530226 -44.20000000000004
    vertex 517.4387088617559 223.37117148530226 -44.20000000000004
  endloop
endfacet
facet normal 2.665205244600307e-32 1.0 -1.5039821240255457e-14
  outer loop
    vertex 547.7170415846089 226.37117148530228 -40.500000000000036
    vertex 553.6170415846088 226.37117148530226 -43.500000000000036
    vertex 547.7170415846088 226.37117148530226 -43.500000000000036
  endloop
endfacet
facet normal 2.665205244600307e-32 1.0 -1.5039821240255457e-14
  outer loop
    vertex 553.6170415846088 226.37117148530226 -43.500000000000036
    vertex 547.7170415846089 226.37117148530228 -40.500000000000036
    vertex 553.6170415846088 226.37117148530228 -40.500000000000036
  endloop
endfacet
facet normal 0.0 -1.0 0.0
  outer loop
    vertex 553.6170415846088 223.37117148530226 -40.500000000000036
    vertex 547.7170415846088 223.37117148530226 -43.500000000000036
    vertex 553.6170415846088 223.37117148530226 -43.500000000000036
  endloop
endfacet
facet normal 0.0 -1.0 0.0
  outer loop
    vertex 547.7170415846088 223.37117148530226 -43.500000000000036
    vertex 553.6170415846088 223.37117148530226 -40.500000000000036
    vertex 547.7170415846089 223.37117148530226 -40.500000000000036
  endloop
endfacet
facet normal -1.0 0.0 0.0
  outer loop
    vertex 535.0387088617559 223.57117148530224 -40.30000000000004
    vertex 535.0387088617559 223.37117148530226 -43.500000000000036
    vertex 535.0387088617559 223.37117148530226 -40.500000000000036
  endloop
endfacet
facet normal -1.0 0.0 0.0
  outer loop
    vertex 535.0387088617559 223.37117148530226 -43.500000000000036
    vertex 535.0387088617559 223.57117148530224 -40.30000000000004
    vertex 535.0387088617559 226.37117148530226 -43.500000000000036
  endloop
endfacet
facet normal -1.0 0.0 0.0
  outer loop
    vertex 535.0387088617559 226.37117148530226 -43.500000000000036
    vertex 535.0387088617559 223.57117148530224 -40.30000000000004
    vertex 535.0387088617559 226.17117148530224 -40.30000000000004
  endloop
endfacet
facet normal -1.0 0.0 0.0
  outer loop
    vertex 535.0387088617559 226.37117148530226 -43.500000000000036
    vertex 535.0387088617559 226.17117148530224 -40.30000000000004
    vertex 535.0387088617559 226.37117148530226 -40.500000000000036
  endloop
endfacet
facet normal 1.0 0.0 0.0
  outer loop
    vertex 553.6170415846088 226.37117148530226 -43.500000000000036
    vertex 553.6170415846088 223.37117148530226 -40.500000000000036
    vertex 553.6170415846088 223.37117148530226 -43.500000000000036
  endloop
endfacet
facet normal 1.0 0.0 0.0
  outer loop
    vertex 553.6170415846088 223.37117148530226 -40.500000000000036
    vertex 553.6170415846088 226.37117148530226 -43.500000000000036
    vertex 553.6170415846088 223.5711714853023 -40.30000000000004
  endloop
endfacet
facet normal 1.0 0.0 0.0
  outer loop
    vertex 553.6170415846088 223.5711714853023 -40.30000000000004
    vertex 553.6170415846088 226.37117148530226 -43.500000000000036
    vertex 553.6170415846088 226.17117148530224 -40.30000000000004
  endloop
endfacet
facet normal 1.0 0.0 0.0
  outer loop
    vertex 553.6170415846088 226.17117148530224 -40.30000000000004
    vertex 553.6170415846088 226.37117148530226 -43.500000000000036
    vertex 553.6170415846088 226.37117148530228 -40.500000000000036
  endloop
endfacet
facet normal 0.0 -1.0 0.0
  outer loop
    vertex 555.1170415846088 222.37117148530226 -43.500000000000036
    vertex 545.838708861756 222.37117148530226 -44.20000000000004
    vertex 555.1170415846088 222.37117148530226 -44.20000000000004
  endloop
endfacet
facet normal 0.0 -1.0 0.0
  outer loop
    vertex 545.838708861756 222.37117148530226 -44.20000000000004
    vertex 555.1170415846088 222.37117148530226 -43.500000000000036
    vertex 545.838708861756 222.37117148530226 -43.500000000000036
  endloop
endfacet
facet normal 1.0 0.0 0.0
  outer loop
    vertex 540.9387088617559 226.37117148530226 -43.500000000000036
    vertex 540.9387088617559 223.37117148530226 -40.500000000000036
    vertex 540.9387088617559 223.37117148530226 -43.500000000000036
  endloop
endfacet
facet normal 1.0 0.0 0.0
  outer loop
    vertex 540.9387088617559 223.37117148530226 -40.500000000000036
    vertex 540.9387088617559 226.37117148530226 -43.500000000000036
    vertex 540.9387088617559 223.57117148530224 -40.30000000000004
  endloop
endfacet
facet normal 1.0 0.0 0.0
  outer loop
    vertex 540.9387088617559 223.57117148530224 -40.30000000000004
    vertex 540.9387088617559 226.37117148530226 -43.500000000000036
    vertex 540.9387088617559 226.17117148530224 -40.30000000000004
  endloop
endfacet
facet normal 1.0 0.0 0.0
  outer loop
    vertex 540.9387088617559 226.17117148530224 -40.30000000000004
    vertex 540.9387088617559 226.37117148530226 -43.500000000000036
    vertex 540.9387088617559 226.37117148530226 -40.500000000000036
  endloop
endfacet
facet normal 0.0 -1.0 0.0
  outer loop
    vertex 540.9387088617559 223.37117148530226 -40.500000000000036
    vertex 535.0387088617559 223.37117148530226 -43.500000000000036
    vertex 540.9387088617559 223.37117148530226 -43.500000000000036
  endloop
endfacet
facet normal 0.0 -1.0 0.0
  outer loop
    vertex 535.0387088617559 223.37117148530226 -43.500000000000036
    vertex 540.9387088617559 223.37117148530226 -40.500000000000036
    vertex 535.0387088617559 223.37117148530226 -40.500000000000036
  endloop
endfacet
facet normal 0.0 1.0 0.0
  outer loop
    vertex 535.0387088617559 226.37117148530226 -40.500000000000036
    vertex 540.9387088617559 226.37117148530226 -43.500000000000036
    vertex 535.0387088617559 226.37117148530226 -43.500000000000036
  endloop
endfacet
facet normal 0.0 1.0 0.0
  outer loop
    vertex 540.9387088617559 226.37117148530226 -43.500000000000036
    vertex 535.0387088617559 226.37117148530226 -40.500000000000036
    vertex 540.9387088617559 226.37117148530226 -40.500000000000036
  endloop
endfacet
facet normal 8.270634576670666e-29 0.7071067811865476 0.7071067811865476
  outer loop
    vertex 535.0387088617559 226.17117148530224 -40.30000000000004
    vertex 540.9387088617559 226.37117148530226 -40.500000000000036
    vertex 535.0387088617559 226.37117148530226 -40.500000000000036
  endloop
endfacet
facet normal 8.270634576670666e-29 0.7071067811865476 0.7071067811865476
  outer loop
    vertex 540.9387088617559 226.37117148530226 -40.500000000000036
    vertex 535.0387088617559 226.17117148530224 -40.30000000000004
    vertex 540.9387088617559 226.17117148530224 -40.30000000000004
  endloop
endfacet
facet normal 0.0 0.0 1.0
  outer loop
    vertex 553.6170415846088 223.5711714853023 -40.30000000000004
    vertex 547.7170415846089 226.17117148530224 -40.30000000000004
    vertex 547.7170415846089 223.5711714853023 -40.30000000000004
  endloop
endfacet
facet normal 0.0 0.0 1.0
  outer loop
    vertex 547.7170415846089 226.17117148530224 -40.30000000000004
    vertex 553.6170415846088 223.5711714853023 -40.30000000000004
    vertex 553.6170415846088 226.17117148530224 -40.30000000000004
  endloop
endfacet
facet normal 1.0 0.0 0.0
  outer loop
    vertex 515.538708861756 226.37117148530226 -43.500000000000036
    vertex 515.538708861756 223.37117148530226 -40.500000000000036
    vertex 515.538708861756 223.37117148530226 -43.500000000000036
  endloop
endfacet
facet normal 1.0 0.0 0.0
  outer loop
    vertex 515.538708861756 223.37117148530226 -40.500000000000036
    vertex 515.538708861756 226.37117148530226 -43.500000000000036
    vertex 515.538708861756 223.57117148530224 -40.30000000000004
  endloop
endfacet
facet normal 1.0 0.0 0.0
  outer loop
    vertex 515.538708861756 223.57117148530224 -40.30000000000004
    vertex 515.538708861756 226.37117148530226 -43.500000000000036
    vertex 515.538708861756 226.17117148530224 -40.30000000000004
  endloop
endfacet
facet normal 1.0 0.0 0.0
  outer loop
    vertex 515.538708861756 226.17117148530224 -40.30000000000004
    vertex 515.538708861756 226.37117148530226 -43.500000000000036
    vertex 515.538708861756 226.37117148530226 -40.500000000000036
  endloop
endfacet
facet normal 0.0 0.0 1.0
  outer loop
    vertex 515.538708861756 223.57117148530224 -40.30000000000004
    vertex 509.638708861756 226.17117148530224 -40.30000000000004
    vertex 509.638708861756 223.57117148530224 -40.30000000000004
  endloop
endfacet
facet normal 0.0 0.0 1.0
  outer loop
    vertex 509.638708861756 226.17117148530224 -40.30000000000004
    vertex 515.538708861756 223.57117148530224 -40.30000000000004
    vertex 515.538708861756 226.17117148530224 -40.30000000000004
  endloop
endfacet
facet normal 0.0 -1.0 0.0
  outer loop
    vertex 515.538708861756 223.37117148530226 -40.500000000000036
    vertex 509.63870886175596 223.37117148530226 -43.500000000000036
    vertex 515.538708861756 223.37117148530226 -43.500000000000036
  endloop
endfacet
facet normal 0.0 -1.0 0.0
  outer loop
    vertex 509.63870886175596 223.37117148530226 -43.500000000000036
    vertex 515.538708861756 223.37117148530226 -40.500000000000036
    vertex 509.638708861756 223.37117148530226 -40.500000000000036
  endloop
endfacet
facet normal -1.0 2.9823994838322174e-43 2.9018742227048915e-14
  outer loop
    vertex 509.638708861756 223.57117148530224 -40.30000000000004
    vertex 509.63870886175596 223.37117148530226 -43.500000000000036
    vertex 509.638708861756 223.37117148530226 -40.500000000000036
  endloop
endfacet
facet normal -1.0 2.9823994838322174e-43 2.9018742227048915e-14
  outer loop
    vertex 509.63870886175596 223.37117148530226 -43.500000000000036
    vertex 509.638708861756 223.57117148530224 -40.30000000000004
    vertex 509.63870886175596 226.37117148530226 -43.500000000000036
  endloop
endfacet
facet normal -1.0 2.9823994838322174e-43 2.9018742227048915e-14
  outer loop
    vertex 509.63870886175596 226.37117148530226 -43.500000000000036
    vertex 509.638708861756 223.57117148530224 -40.30000000000004
    vertex 509.638708861756 226.17117148530224 -40.30000000000004
  endloop
endfacet
facet normal -1.0 2.9823994838322174e-43 2.9018742227048915e-14
  outer loop
    vertex 509.63870886175596 226.37117148530226 -43.500000000000036
    vertex 509.638708861756 226.17117148530224 -40.30000000000004
    vertex 509.638708861756 226.37117148530226 -40.500000000000036
  endloop
endfacet
facet normal 0.0 1.0 0.0
  outer loop
    vertex 509.638708861756 226.37117148530226 -40.500000000000036
    vertex 515.538708861756 226.37117148530226 -43.500000000000036
    vertex 509.63870886175596 226.37117148530226 -43.500000000000036
  endloop
endfacet
facet normal 0.0 1.0 0.0
  outer loop
    vertex 515.538708861756 226.37117148530226 -43.500000000000036
    vertex 509.638708861756 226.37117148530226 -40.500000000000036
    vertex 515.538708861756 226.37117148530226 -40.500000000000036
  endloop
endfacet
facet normal 8.270634576670666e-29 0.7071067811865476 0.7071067811865476
  outer loop
    vertex 509.638708861756 226.17117148530224 -40.30000000000004
    vertex 515.538708861756 226.37117148530226 -40.500000000000036
    vertex 509.638708861756 226.37117148530226 -40.500000000000036
  endloop
endfacet
facet normal 8.270634576670666e-29 0.7071067811865476 0.7071067811865476
  outer loop
    vertex 515.538708861756 226.37117148530226 -40.500000000000036
    vertex 509.638708861756 226.17117148530224 -40.30000000000004
    vertex 515.538708861756 226.17117148530224 -40.30000000000004
  endloop
endfacet
facet normal 0.0 0.0 1.0
  outer loop
    vertex 528.2170415846088 223.57117148530224 -40.30000000000004
    vertex 522.3170415846089 226.17117148530224 -40.30000000000004
    vertex 522.3170415846089 223.57117148530224 -40.30000000000004
  endloop
endfacet
facet normal 0.0 0.0 1.0
  outer loop
    vertex 522.3170415846089 226.17117148530224 -40.30000000000004
    vertex 528.2170415846088 223.57117148530224 -40.30000000000004
    vertex 528.2170415846088 226.17117148530224 -40.30000000000004
  endloop
endfacet
facet normal -8.270634576670666e-29 -0.7071067811865476 0.7071067811865476
  outer loop
    vertex 515.538708861756 223.57117148530224 -40.30000000000004
    vertex 509.638708861756 223.37117148530226 -40.500000000000036
    vertex 515.538708861756 223.37117148530226 -40.500000000000036
  endloop
endfacet
facet normal -8.270634576670666e-29 -0.7071067811865476 0.7071067811865476
  outer loop
    vertex 509.638708861756 223.37117148530226 -40.500000000000036
    vertex 515.538708861756 223.57117148530224 -40.30000000000004
    vertex 509.638708861756 223.57117148530224 -40.30000000000004
  endloop
endfacet
facet normal 0.0 -0.7071067811865476 0.7071067811865476
  outer loop
    vertex 528.2170415846088 223.57117148530224 -40.30000000000004
    vertex 522.3170415846089 223.37117148530226 -40.500000000000036
    vertex 528.2170415846088 223.37117148530226 -40.500000000000036
  endloop
endfacet
facet normal 0.0 -0.7071067811865476 0.7071067811865476
  outer loop
    vertex 522.3170415846089 223.37117148530226 -40.500000000000036
    vertex 528.2170415846088 223.57117148530224 -40.30000000000004
    vertex 522.3170415846089 223.57117148530224 -40.30000000000004
  endloop
endfacet
facet normal 0.0 0.7071067811865476 0.7071067811865476
  outer loop
    vertex 522.3170415846089 226.17117148530224 -40.30000000000004
    vertex 528.2170415846088 226.37117148530226 -40.500000000000036
    vertex 522.3170415846089 226.37117148530226 -40.500000000000036
  endloop
endfacet
facet normal 0.0 0.7071067811865476 0.7071067811865476
  outer loop
    vertex 528.2170415846088 226.37117148530226 -40.500000000000036
    vertex 522.3170415846089 226.17117148530224 -40.30000000000004
    vertex 528.2170415846088 226.17117148530224 -40.30000000000004
  endloop
endfacet
facet normal 0.0 1.0 0.0
  outer loop
    vertex 522.3170415846089 226.37117148530226 -40.500000000000036
    vertex 528.2170415846088 226.37117148530226 -43.500000000000036
    vertex 522.3170415846089 226.37117148530226 -43.500000000000036
  endloop
endfacet
facet normal 0.0 1.0 0.0
  outer loop
    vertex 528.2170415846088 226.37117148530226 -43.500000000000036
    vertex 522.3170415846089 226.37117148530226 -40.500000000000036
    vertex 528.2170415846088 226.37117148530226 -40.500000000000036
  endloop
endfacet
facet normal 0.0 -1.0 0.0
  outer loop
    vertex 528.2170415846088 223.37117148530226 -40.500000000000036
    vertex 522.3170415846089 223.37117148530226 -43.500000000000036
    vertex 528.2170415846088 223.37117148530226 -43.500000000000036
  endloop
endfacet
facet normal 0.0 -1.0 0.0
  outer loop
    vertex 522.3170415846089 223.37117148530226 -43.500000000000036
    vertex 528.2170415846088 223.37117148530226 -40.500000000000036
    vertex 522.3170415846089 223.37117148530226 -40.500000000000036
  endloop
endfacet
facet normal -1.0 0.0 0.0
  outer loop
    vertex 522.3170415846089 223.57117148530224 -40.30000000000004
    vertex 522.3170415846089 223.37117148530226 -43.500000000000036
    vertex 522.3170415846089 223.37117148530226 -40.500000000000036
  endloop
endfacet
facet normal -1.0 0.0 0.0
  outer loop
    vertex 522.3170415846089 223.37117148530226 -43.500000000000036
    vertex 522.3170415846089 223.57117148530224 -40.30000000000004
    vertex 522.3170415846089 226.37117148530226 -43.500000000000036
  endloop
endfacet
facet normal -1.0 0.0 0.0
  outer loop
    vertex 522.3170415846089 226.37117148530226 -43.500000000000036
    vertex 522.3170415846089 223.57117148530224 -40.30000000000004
    vertex 522.3170415846089 226.17117148530224 -40.30000000000004
  endloop
endfacet
facet normal -1.0 0.0 0.0
  outer loop
    vertex 522.3170415846089 226.37117148530226 -43.500000000000036
    vertex 522.3170415846089 226.17117148530224 -40.30000000000004
    vertex 522.3170415846089 226.37117148530226 -40.500000000000036
  endloop
endfacet
facet normal 1.0 0.0 0.0
  outer loop
    vertex 528.2170415846088 226.37117148530226 -43.500000000000036
    vertex 528.2170415846088 223.37117148530226 -40.500000000000036
    vertex 528.2170415846088 223.37117148530226 -43.500000000000036
  endloop
endfacet
facet normal 1.0 0.0 0.0
  outer loop
    vertex 528.2170415846088 223.37117148530226 -40.500000000000036
    vertex 528.2170415846088 226.37117148530226 -43.500000000000036
    vertex 528.2170415846088 223.57117148530224 -40.30000000000004
  endloop
endfacet
facet normal 1.0 0.0 0.0
  outer loop
    vertex 528.2170415846088 223.57117148530224 -40.30000000000004
    vertex 528.2170415846088 226.37117148530226 -43.500000000000036
    vertex 528.2170415846088 226.17117148530224 -40.30000000000004
  endloop
endfacet
facet normal 1.0 0.0 0.0
  outer loop
    vertex 528.2170415846088 226.17117148530224 -40.30000000000004
    vertex 528.2170415846088 226.37117148530226 -43.500000000000036
    vertex 528.2170415846088 226.37117148530226 -40.500000000000036
  endloop
endfacet
facet normal 0.0 0.0 1.0
  outer loop
    vertex 545.838708861756 222.37117148530226 -43.500000000000036
    vertex 547.7170415846088 223.37117148530226 -43.500000000000036
    vertex 545.838708861756 227.37117148530226 -43.500000000000036
  endloop
endfacet
facet normal 0.0 0.0 1.0
  outer loop
    vertex 547.7170415846088 223.37117148530226 -43.500000000000036
    vertex 545.838708861756 222.37117148530226 -43.500000000000036
    vertex 555.1170415846088 222.37117148530226 -43.500000000000036
  endloop
endfacet
facet normal 0.0 0.0 1.0
  outer loop
    vertex 547.7170415846088 223.37117148530226 -43.500000000000036
    vertex 555.1170415846088 222.37117148530226 -43.500000000000036
    vertex 553.6170415846088 223.37117148530226 -43.500000000000036
  endloop
endfacet
facet normal 0.0 0.0 1.0
  outer loop
    vertex 553.6170415846088 223.37117148530226 -43.500000000000036
    vertex 555.1170415846088 222.37117148530226 -43.500000000000036
    vertex 553.6170415846088 226.37117148530226 -43.500000000000036
  endloop
endfacet
facet normal 0.0 0.0 1.0
  outer loop
    vertex 545.838708861756 227.37117148530226 -43.500000000000036
    vertex 547.7170415846088 226.37117148530226 -43.500000000000036
    vertex 555.1170415846088 227.37117148530226 -43.500000000000036
  endloop
endfacet
facet normal 0.0 0.0 1.0
  outer loop
    vertex 547.7170415846088 226.37117148530226 -43.500000000000036
    vertex 545.838708861756 227.37117148530226 -43.500000000000036
    vertex 547.7170415846088 223.37117148530226 -43.500000000000036
  endloop
endfacet
facet normal 0.0 0.0 1.0
  outer loop
    vertex 555.1170415846088 227.37117148530226 -43.500000000000036
    vertex 547.7170415846088 226.37117148530226 -43.500000000000036
    vertex 553.6170415846088 226.37117148530226 -43.500000000000036
  endloop
endfacet
facet normal 0.0 0.0 1.0
  outer loop
    vertex 555.1170415846088 227.37117148530226 -43.500000000000036
    vertex 553.6170415846088 226.37117148530226 -43.500000000000036
    vertex 555.1170415846088 222.37117148530226 -43.500000000000036
  endloop
endfacet
facet normal -1.0 0.0 0.0
  outer loop
    vertex 508.138708861756 227.37117148530226 -43.500000000000036
    vertex 508.138708861756 222.37117148530226 -44.20000000000004
    vertex 508.138708861756 222.37117148530226 -43.500000000000036
  endloop
endfacet
facet normal -1.0 0.0 0.0
  outer loop
    vertex 508.138708861756 222.37117148530226 -44.20000000000004
    vertex 508.138708861756 227.37117148530226 -43.500000000000036
    vertex 508.138708861756 227.37117148530226 -44.20000000000004
  endloop
endfacet
facet normal 0.0 0.0 1.0
  outer loop
    vertex 508.138708861756 222.37117148530226 -43.500000000000036
    vertex 509.63870886175596 223.37117148530226 -43.500000000000036
    vertex 508.138708861756 227.37117148530226 -43.500000000000036
  endloop
endfacet
facet normal 0.0 0.0 1.0
  outer loop
    vertex 509.63870886175596 223.37117148530226 -43.500000000000036
    vertex 508.138708861756 222.37117148530226 -43.500000000000036
    vertex 517.4387088617559 222.37117148530226 -43.500000000000036
  endloop
endfacet
facet normal 0.0 0.0 1.0
  outer loop
    vertex 509.63870886175596 223.37117148530226 -43.500000000000036
    vertex 517.4387088617559 222.37117148530226 -43.500000000000036
    vertex 515.538708861756 223.37117148530226 -43.500000000000036
  endloop
endfacet
facet normal 0.0 0.0 1.0
  outer loop
    vertex 515.538708861756 223.37117148530226 -43.500000000000036
    vertex 517.4387088617559 222.37117148530226 -43.500000000000036
    vertex 515.538708861756 226.37117148530226 -43.500000000000036
  endloop
endfacet
facet normal 0.0 0.0 1.0
  outer loop
    vertex 508.138708861756 227.37117148530226 -43.500000000000036
    vertex 509.63870886175596 226.37117148530226 -43.500000000000036
    vertex 517.4387088617559 227.37117148530226 -43.500000000000036
  endloop
endfacet
facet normal 0.0 0.0 1.0
  outer loop
    vertex 509.63870886175596 226.37117148530226 -43.500000000000036
    vertex 508.138708861756 227.37117148530226 -43.500000000000036
    vertex 509.63870886175596 223.37117148530226 -43.500000000000036
  endloop
endfacet
facet normal 0.0 0.0 1.0
  outer loop
    vertex 517.4387088617559 227.37117148530226 -43.500000000000036
    vertex 509.63870886175596 226.37117148530226 -43.500000000000036
    vertex 515.538708861756 226.37117148530226 -43.500000000000036
  endloop
endfacet
facet normal 0.0 0.0 1.0
  outer loop
    vertex 517.4387088617559 227.37117148530226 -43.500000000000036
    vertex 515.538708861756 226.37117148530226 -43.500000000000036
    vertex 517.4387088617559 222.37117148530226 -43.500000000000036
  endloop
endfacet
facet normal 0.0 0.0 1.0
  outer loop
    vertex 520.438708861756 222.37117148530226 -43.500000000000036
    vertex 522.3170415846089 223.37117148530226 -43.500000000000036
    vertex 520.438708861756 227.37117148530226 -43.500000000000036
  endloop
endfacet
facet normal 0.0 0.0 1.0
  outer loop
    vertex 522.3170415846089 223.37117148530226 -43.500000000000036
    vertex 520.438708861756 222.37117148530226 -43.500000000000036
    vertex 530.1170415846088 222.37117148530226 -43.500000000000036
  endloop
endfacet
facet normal 0.0 0.0 1.0
  outer loop
    vertex 522.3170415846089 223.37117148530226 -43.500000000000036
    vertex 530.1170415846088 222.37117148530226 -43.500000000000036
    vertex 528.2170415846088 223.37117148530226 -43.500000000000036
  endloop
endfacet
facet normal 0.0 0.0 1.0
  outer loop
    vertex 528.2170415846088 223.37117148530226 -43.500000000000036
    vertex 530.1170415846088 222.37117148530226 -43.500000000000036
    vertex 528.2170415846088 226.37117148530226 -43.500000000000036
  endloop
endfacet
facet normal 0.0 0.0 1.0
  outer loop
    vertex 520.438708861756 227.37117148530226 -43.500000000000036
    vertex 522.3170415846089 226.37117148530226 -43.500000000000036
    vertex 530.1170415846088 227.37117148530226 -43.500000000000036
  endloop
endfacet
facet normal 0.0 0.0 1.0
  outer loop
    vertex 522.3170415846089 226.37117148530226 -43.500000000000036
    vertex 520.438708861756 227.37117148530226 -43.500000000000036
    vertex 522.3170415846089 223.37117148530226 -43.500000000000036
  endloop
endfacet
facet normal 0.0 0.0 1.0
  outer loop
    vertex 530.1170415846088 227.37117148530226 -43.500000000000036
    vertex 522.3170415846089 226.37117148530226 -43.500000000000036
    vertex 528.2170415846088 226.37117148530226 -43.500000000000036
  endloop
endfacet
facet normal 0.0 0.0 1.0
  outer loop
    vertex 530.1170415846088 227.37117148530226 -43.500000000000036
    vertex 528.2170415846088 226.37117148530226 -43.500000000000036
    vertex 530.1170415846088 222.37117148530226 -43.500000000000036
  endloop
endfacet
facet normal 0.0 0.0 1.0
  outer loop
    vertex 533.1170415846088 222.37117148530226 -43.500000000000036
    vertex 535.0387088617559 223.37117148530226 -43.500000000000036
    vertex 533.1170415846088 227.37117148530226 -43.500000000000036
  endloop
endfacet
facet normal 0.0 0.0 1.0
  outer loop
    vertex 535.0387088617559 223.37117148530226 -43.500000000000036
    vertex 533.1170415846088 222.37117148530226 -43.500000000000036
    vertex 542.8387088617559 222.37117148530226 -43.500000000000036
  endloop
endfacet
facet normal 0.0 0.0 1.0
  outer loop
    vertex 535.0387088617559 223.37117148530226 -43.500000000000036
    vertex 542.8387088617559 222.37117148530226 -43.500000000000036
    vertex 540.9387088617559 223.37117148530226 -43.500000000000036
  endloop
endfacet
facet normal 0.0 0.0 1.0
  outer loop
    vertex 540.9387088617559 223.37117148530226 -43.500000000000036
    vertex 542.8387088617559 222.37117148530226 -43.500000000000036
    vertex 540.9387088617559 226.37117148530226 -43.500000000000036
  endloop
endfacet
facet normal 0.0 0.0 1.0
  outer loop
    vertex 533.1170415846088 227.37117148530226 -43.500000000000036
    vertex 535.0387088617559 226.37117148530226 -43.500000000000036
    vertex 542.8387088617559 227.37117148530226 -43.500000000000036
  endloop
endfacet
facet normal 0.0 0.0 1.0
  outer loop
    vertex 535.0387088617559 226.37117148530226 -43.500000000000036
    vertex 533.1170415846088 227.37117148530226 -43.500000000000036
    vertex 535.0387088617559 223.37117148530226 -43.500000000000036
  endloop
endfacet
facet normal 0.0 0.0 1.0
  outer loop
    vertex 542.8387088617559 227.37117148530226 -43.500000000000036
    vertex 535.0387088617559 226.37117148530226 -43.500000000000036
    vertex 540.9387088617559 226.37117148530226 -43.500000000000036
  endloop
endfacet
facet normal 0.0 0.0 1.0
  outer loop
    vertex 542.8387088617559 227.37117148530226 -43.500000000000036
    vertex 540.9387088617559 226.37117148530226 -43.500000000000036
    vertex 542.8387088617559 222.37117148530226 -43.500000000000036
  endloop
endfacet
facet normal 0.0 0.0 1.0
  outer loop
    vertex 520.438708861756 223.37117148530226 -43.90000000000004
    vertex 517.4387088617559 226.37117148530226 -43.90000000000004
    vertex 517.4387088617559 223.37117148530226 -43.90000000000004
  endloop
endfacet
facet normal 0.0 0.0 1.0
  outer loop
    vertex 517.4387088617559 226.37117148530226 -43.90000000000004
    vertex 520.438708861756 223.37117148530226 -43.90000000000004
    vertex 520.438708861756 226.37117148530226 -43.90000000000004
  endloop
endfacet
facet normal 0.0 0.0 1.0
  outer loop
    vertex 533.1170415846088 223.37117148530226 -43.90000000000004
    vertex 530.1170415846088 226.37117148530226 -43.90000000000004
    vertex 530.1170415846088 223.37117148530226 -43.90000000000004
  endloop
endfacet
facet normal 0.0 0.0 1.0
  outer loop
    vertex 530.1170415846088 226.37117148530226 -43.90000000000004
    vertex 533.1170415846088 223.37117148530226 -43.90000000000004
    vertex 533.1170415846088 226.37117148530226 -43.90000000000004
  endloop
endfacet
facet normal 0.0 0.0 1.0
  outer loop
    vertex 545.838708861756 223.37117148530226 -43.90000000000004
    vertex 542.8387088617559 226.37117148530226 -43.90000000000004
    vertex 542.8387088617559 223.37117148530226 -43.90000000000004
  endloop
endfacet
facet normal 0.0 0.0 1.0
  outer loop
    vertex 542.8387088617559 226.37117148530226 -43.90000000000004
    vertex 545.838708861756 223.37117148530226 -43.90000000000004
    vertex 545.838708861756 226.37117148530226 -43.90000000000004
  endloop
endfacet
facet normal 0.0 -1.0 0.0
  outer loop
    vertex 517.4387088617559 222.37117148530226 -43.500000000000036
    vertex 508.138708861756 222.37117148530226 -44.20000000000004
    vertex 517.4387088617559 222.37117148530226 -44.20000000000004
  endloop
endfacet
facet normal 0.0 -1.0 0.0
  outer loop
    vertex 508.138708861756 222.37117148530226 -44.20000000000004
    vertex 517.4387088617559 222.37117148530226 -43.500000000000036
    vertex 508.138708861756 222.37117148530226 -43.500000000000036
  endloop
endfacet
facet normal 0.0 -1.0 0.0
  outer loop
    vertex 530.1170415846088 222.37117148530226 -43.500000000000036
    vertex 520.438708861756 222.37117148530226 -44.20000000000004
    vertex 530.1170415846088 222.37117148530226 -44.20000000000004
  endloop
endfacet
facet normal 0.0 -1.0 0.0
  outer loop
    vertex 520.438708861756 222.37117148530226 -44.20000000000004
    vertex 530.1170415846088 222.37117148530226 -43.500000000000036
    vertex 520.438708861756 222.37117148530226 -43.500000000000036
  endloop
endfacet
facet normal 0.0 -1.0 0.0
  outer loop
    vertex 542.8387088617559 222.37117148530226 -43.500000000000036
    vertex 533.1170415846088 222.37117148530226 -44.20000000000004
    vertex 542.8387088617559 222.37117148530226 -44.20000000000004
  endloop
endfacet
facet normal 0.0 -1.0 0.0
  outer loop
    vertex 533.1170415846088 222.37117148530226 -44.20000000000004
    vertex 542.8387088617559 222.37117148530226 -43.500000000000036
    vertex 533.1170415846088 222.37117148530226 -43.500000000000036
  endloop
endfacet
facet normal 0.0 -1.0 0.0
  outer loop
    vertex 520.438708861756 223.37117148530226 -43.90000000000004
    vertex 517.4387088617559 223.37117148530226 -44.20000000000004
    vertex 520.438708861756 223.37117148530226 -44.20000000000004
  endloop
endfacet
facet normal 0.0 -1.0 0.0
  outer loop
    vertex 517.4387088617559 223.37117148530226 -44.20000000000004
    vertex 520.438708861756 223.37117148530226 -43.90000000000004
    vertex 517.4387088617559 223.37117148530226 -43.90000000000004
  endloop
endfacet
facet normal -1.0 0.0 0.0
  outer loop
    vertex 520.438708861756 222.37117148530226 -43.500000000000036
    vertex 520.438708861756 223.37117148530226 -43.90000000000004
    vertex 520.438708861756 222.37117148530226 -44.20000000000004
  endloop
endfacet
facet normal -1.0 0.0 0.0
  outer loop
    vertex 520.438708861756 223.37117148530226 -43.90000000000004
    vertex 520.438708861756 222.37117148530226 -43.500000000000036
    vertex 520.438708861756 227.37117148530226 -43.500000000000036
  endloop
endfacet
facet normal -1.0 0.0 0.0
  outer loop
    vertex 520.438708861756 223.37117148530226 -43.90000000000004
    vertex 520.438708861756 227.37117148530226 -43.500000000000036
    vertex 520.438708861756 226.37117148530226 -43.90000000000004
  endloop
endfacet
facet normal -1.0 0.0 0.0
  outer loop
    vertex 520.438708861756 226.37117148530226 -43.90000000000004
    vertex 520.438708861756 227.37117148530226 -43.500000000000036
    vertex 520.438708861756 226.37117148530226 -44.20000000000004
  endloop
endfacet
facet normal -1.0 0.0 0.0
  outer loop
    vertex 520.438708861756 226.37117148530226 -44.20000000000004
    vertex 520.438708861756 227.37117148530226 -43.500000000000036
    vertex 520.438708861756 227.37117148530226 -44.20000000000004
  endloop
endfacet
facet normal -1.0 0.0 0.0
  outer loop
    vertex 520.438708861756 223.37117148530226 -44.20000000000004
    vertex 520.438708861756 222.37117148530226 -44.20000000000004
    vertex 520.438708861756 223.37117148530226 -43.90000000000004
  endloop
endfacet
facet normal 1.0 0.0 0.0
  outer loop
    vertex 517.4387088617559 227.37117148530226 -44.20000000000004
    vertex 517.4387088617559 226.37117148530226 -43.90000000000004
    vertex 517.4387088617559 226.37117148530226 -44.20000000000004
  endloop
endfacet
facet normal 1.0 0.0 0.0
  outer loop
    vertex 517.4387088617559 223.37117148530226 -44.20000000000004
    vertex 517.4387088617559 222.37117148530226 -43.500000000000036
    vertex 517.4387088617559 222.37117148530226 -44.20000000000004
  endloop
endfacet
facet normal 1.0 0.0 0.0
  outer loop
    vertex 517.4387088617559 222.37117148530226 -43.500000000000036
    vertex 517.4387088617559 223.37117148530226 -44.20000000000004
    vertex 517.4387088617559 223.37117148530226 -43.90000000000004
  endloop
endfacet
facet normal 1.0 0.0 0.0
  outer loop
    vertex 517.4387088617559 222.37117148530226 -43.500000000000036
    vertex 517.4387088617559 223.37117148530226 -43.90000000000004
    vertex 517.4387088617559 227.37117148530226 -43.500000000000036
  endloop
endfacet
facet normal 1.0 0.0 0.0
  outer loop
    vertex 517.4387088617559 227.37117148530226 -43.500000000000036
    vertex 517.4387088617559 223.37117148530226 -43.90000000000004
    vertex 517.4387088617559 226.37117148530226 -43.90000000000004
  endloop
endfacet
facet normal 1.0 0.0 0.0
  outer loop
    vertex 517.4387088617559 227.37117148530226 -43.500000000000036
    vertex 517.4387088617559 226.37117148530226 -43.90000000000004
    vertex 517.4387088617559 227.37117148530226 -44.20000000000004
  endloop
endfacet
facet normal 0.0 -1.0 0.0
  outer loop
    vertex 533.1170415846088 223.37117148530226 -43.90000000000004
    vertex 530.1170415846088 223.37117148530226 -44.20000000000004
    vertex 533.1170415846088 223.37117148530226 -44.20000000000004
  endloop
endfacet
facet normal 0.0 -1.0 0.0
  outer loop
    vertex 530.1170415846088 223.37117148530226 -44.20000000000004
    vertex 533.1170415846088 223.37117148530226 -43.90000000000004
    vertex 530.1170415846088 223.37117148530226 -43.90000000000004
  endloop
endfacet
facet normal -1.0 0.0 0.0
  outer loop
    vertex 533.1170415846088 222.37117148530226 -43.500000000000036
    vertex 533.1170415846088 223.37117148530226 -43.90000000000004
    vertex 533.1170415846088 222.37117148530226 -44.20000000000004
  endloop
endfacet
facet normal -1.0 0.0 0.0
  outer loop
    vertex 533.1170415846088 223.37117148530226 -43.90000000000004
    vertex 533.1170415846088 222.37117148530226 -43.500000000000036
    vertex 533.1170415846088 227.37117148530226 -43.500000000000036
  endloop
endfacet
facet normal -1.0 0.0 0.0
  outer loop
    vertex 533.1170415846088 223.37117148530226 -43.90000000000004
    vertex 533.1170415846088 227.37117148530226 -43.500000000000036
    vertex 533.1170415846088 226.37117148530226 -43.90000000000004
  endloop
endfacet
facet normal -1.0 0.0 0.0
  outer loop
    vertex 533.1170415846088 226.37117148530226 -43.90000000000004
    vertex 533.1170415846088 227.37117148530226 -43.500000000000036
    vertex 533.1170415846088 226.37117148530226 -44.20000000000004
  endloop
endfacet
facet normal -1.0 0.0 0.0
  outer loop
    vertex 533.1170415846088 226.37117148530226 -44.20000000000004
    vertex 533.1170415846088 227.37117148530226 -43.500000000000036
    vertex 533.1170415846088 227.37117148530226 -44.20000000000004
  endloop
endfacet
facet normal -1.0 0.0 0.0
  outer loop
    vertex 533.1170415846088 223.37117148530226 -44.20000000000004
    vertex 533.1170415846088 222.37117148530226 -44.20000000000004
    vertex 533.1170415846088 223.37117148530226 -43.90000000000004
  endloop
endfacet
facet normal 1.0 0.0 0.0
  outer loop
    vertex 530.1170415846088 227.37117148530226 -44.20000000000004
    vertex 530.1170415846088 226.37117148530226 -43.90000000000004
    vertex 530.1170415846088 226.37117148530226 -44.20000000000004
  endloop
endfacet
facet normal 1.0 0.0 0.0
  outer loop
    vertex 530.1170415846088 223.37117148530226 -44.20000000000004
    vertex 530.1170415846088 222.37117148530226 -43.500000000000036
    vertex 530.1170415846088 222.37117148530226 -44.20000000000004
  endloop
endfacet
facet normal 1.0 0.0 0.0
  outer loop
    vertex 530.1170415846088 222.37117148530226 -43.500000000000036
    vertex 530.1170415846088 223.37117148530226 -44.20000000000004
    vertex 530.1170415846088 223.37117148530226 -43.90000000000004
  endloop
endfacet
facet normal 1.0 0.0 0.0
  outer loop
    vertex 530.1170415846088 222.37117148530226 -43.500000000000036
    vertex 530.1170415846088 223.37117148530226 -43.90000000000004
    vertex 530.1170415846088 227.37117148530226 -43.500000000000036
  endloop
endfacet
facet normal 1.0 0.0 0.0
  outer loop
    vertex 530.1170415846088 227.37117148530226 -43.500000000000036
    vertex 530.1170415846088 223.37117148530226 -43.90000000000004
    vertex 530.1170415846088 226.37117148530226 -43.90000000000004
  endloop
endfacet
facet normal 1.0 0.0 0.0
  outer loop
    vertex 530.1170415846088 227.37117148530226 -43.500000000000036
    vertex 530.1170415846088 226.37117148530226 -43.90000000000004
    vertex 530.1170415846088 227.37117148530226 -44.20000000000004
  endloop
endfacet
facet normal 0.0 -1.0 0.0
  outer loop
    vertex 545.838708861756 223.37117148530226 -43.90000000000004
    vertex 542.8387088617559 223.37117148530226 -44.20000000000004
    vertex 545.838708861756 223.37117148530226 -44.20000000000004
  endloop
endfacet
facet normal 0.0 -1.0 0.0
  outer loop
    vertex 542.8387088617559 223.37117148530226 -44.20000000000004
    vertex 545.838708861756 223.37117148530226 -43.90000000000004
    vertex 542.8387088617559 223.37117148530226 -43.90000000000004
  endloop
endfacet
facet normal -1.0 0.0 0.0
  outer loop
    vertex 545.838708861756 222.37117148530226 -43.500000000000036
    vertex 545.838708861756 223.37117148530226 -43.90000000000004
    vertex 545.838708861756 222.37117148530226 -44.20000000000004
  endloop
endfacet
facet normal -1.0 0.0 0.0
  outer loop
    vertex 545.838708861756 223.37117148530226 -43.90000000000004
    vertex 545.838708861756 222.37117148530226 -43.500000000000036
    vertex 545.838708861756 227.37117148530226 -43.500000000000036
  endloop
endfacet
facet normal -1.0 0.0 0.0
  outer loop
    vertex 545.838708861756 223.37117148530226 -43.90000000000004
    vertex 545.838708861756 227.37117148530226 -43.500000000000036
    vertex 545.838708861756 226.37117148530226 -43.90000000000004
  endloop
endfacet
facet normal -1.0 0.0 0.0
  outer loop
    vertex 545.838708861756 226.37117148530226 -43.90000000000004
    vertex 545.838708861756 227.37117148530226 -43.500000000000036
    vertex 545.838708861756 226.37117148530226 -44.20000000000004
  endloop
endfacet
facet normal -1.0 0.0 0.0
  outer loop
    vertex 545.838708861756 226.37117148530226 -44.20000000000004
    vertex 545.838708861756 227.37117148530226 -43.500000000000036
    vertex 545.838708861756 227.37117148530226 -44.20000000000004
  endloop
endfacet
facet normal -1.0 0.0 0.0
  outer loop
    vertex 545.838708861756 223.37117148530226 -44.20000000000004
    vertex 545.838708861756 222.37117148530226 -44.20000000000004
    vertex 545.838708861756 223.37117148530226 -43.90000000000004
  endloop
endfacet
facet normal 1.0 0.0 0.0
  outer loop
    vertex 542.8387088617559 227.37117148530226 -44.20000000000004
    vertex 542.8387088617559 226.37117148530226 -43.90000000000004
    vertex 542.8387088617559 226.37117148530226 -44.20000000000004
  endloop
endfacet
facet normal 1.0 0.0 0.0
  outer loop
    vertex 542.8387088617559 223.37117148530226 -44.20000000000004
    vertex 542.8387088617559 222.37117148530226 -43.500000000000036
    vertex 542.8387088617559 222.37117148530226 -44.20000000000004
  endloop
endfacet
facet normal 1.0 0.0 0.0
  outer loop
    vertex 542.8387088617559 222.37117148530226 -43.500000000000036
    vertex 542.8387088617559 223.37117148530226 -44.20000000000004
    vertex 542.8387088617559 223.37117148530226 -43.90000000000004
  endloop
endfacet
facet normal 1.0 0.0 0.0
  outer loop
    vertex 542.8387088617559 222.37117148530226 -43.500000000000036
    vertex 542.8387088617559 223.37117148530226 -43.90000000000004
    vertex 542.8387088617559 227.37117148530226 -43.500000000000036
  endloop
endfacet
facet normal 1.0 0.0 0.0
  outer loop
    vertex 542.8387088617559 227.37117148530226 -43.500000000000036
    vertex 542.8387088617559 223.37117148530226 -43.90000000000004
    vertex 542.8387088617559 226.37117148530226 -43.90000000000004
  endloop
endfacet
facet normal 1.0 0.0 0.0
  outer loop
    vertex 542.8387088617559 227.37117148530226 -43.500000000000036
    vertex 542.8387088617559 226.37117148530226 -43.90000000000004
    vertex 542.8387088617559 227.37117148530226 -44.20000000000004
  endloop
endfacet
facet normal 0.0 1.0 0.0
  outer loop
    vertex 520.438708861756 227.37117148530226 -43.500000000000036
    vertex 530.1170415846088 227.37117148530226 -44.20000000000004
    vertex 520.438708861756 227.37117148530226 -44.20000000000004
  endloop
endfacet
facet normal 0.0 1.0 0.0
  outer loop
    vertex 530.1170415846088 227.37117148530226 -44.20000000000004
    vertex 520.438708861756 227.37117148530226 -43.500000000000036
    vertex 530.1170415846088 227.37117148530226 -43.500000000000036
  endloop
endfacet
facet normal 0.0 1.0 0.0
  outer loop
    vertex 533.1170415846088 227.37117148530226 -43.500000000000036
    vertex 542.8387088617559 227.37117148530226 -44.20000000000004
    vertex 533.1170415846088 227.37117148530226 -44.20000000000004
  endloop
endfacet
facet normal 0.0 1.0 0.0
  outer loop
    vertex 542.8387088617559 227.37117148530226 -44.20000000000004
    vertex 533.1170415846088 227.37117148530226 -43.500000000000036
    vertex 542.8387088617559 227.37117148530226 -43.500000000000036
  endloop
endfacet
facet normal 0.0 1.0 0.0
  outer loop
    vertex 545.838708861756 227.37117148530226 -43.500000000000036
    vertex 555.1170415846088 227.37117148530226 -44.20000000000004
    vertex 545.838708861756 227.37117148530226 -44.20000000000004
  endloop
endfacet
facet normal 0.0 1.0 0.0
  outer loop
    vertex 555.1170415846088 227.37117148530226 -44.20000000000004
    vertex 545.838708861756 227.37117148530226 -43.500000000000036
    vertex 555.1170415846088 227.37117148530226 -43.500000000000036
  endloop
endfacet
facet normal 0.0 1.0 0.0
  outer loop
    vertex 542.8387088617559 226.37117148530226 -43.90000000000004
    vertex 545.838708861756 226.37117148530226 -44.20000000000004
    vertex 542.8387088617559 226.37117148530226 -44.20000000000004
  endloop
endfacet
facet normal 0.0 1.0 0.0
  outer loop
    vertex 545.838708861756 226.37117148530226 -44.20000000000004
    vertex 542.8387088617559 226.37117148530226 -43.90000000000004
    vertex 545.838708861756 226.37117148530226 -43.90000000000004
  endloop
endfacet
facet normal 0.0 1.0 0.0
  outer loop
    vertex 530.1170415846088 226.37117148530226 -43.90000000000004
    vertex 533.1170415846088 226.37117148530226 -44.20000000000004
    vertex 530.1170415846088 226.37117148530226 -44.20000000000004
  endloop
endfacet
facet normal 0.0 1.0 0.0
  outer loop
    vertex 533.1170415846088 226.37117148530226 -44.20000000000004
    vertex 530.1170415846088 226.37117148530226 -43.90000000000004
    vertex 533.1170415846088 226.37117148530226 -43.90000000000004
  endloop
endfacet
facet normal 0.0 1.0 0.0
  outer loop
    vertex 517.4387088617559 226.37117148530226 -43.90000000000004
    vertex 520.438708861756 226.37117148530226 -44.20000000000004
    vertex 517.4387088617559 226.37117148530226 -44.20000000000004
  endloop
endfacet
facet normal 0.0 1.0 0.0
  outer loop
    vertex 520.438708861756 226.37117148530226 -44.20000000000004
    vertex 517.4387088617559 226.37117148530226 -43.90000000000004
    vertex 520.438708861756 226.37117148530226 -43.90000000000004
  endloop
endfacet
endsolid mlplayer-case
